<svg width="24" height="25" viewBox="0 0 24 25" fill="none" xmlns="http://www.w3.org/2000/svg">
<path d="M12 7.5C13.1046 7.5 14 6.60457 14 5.5C14 4.39543 13.1046 3.5 12 3.5C10.8954 3.5 10 4.39543 10 5.5C10 6.60457 10.8954 7.5 12 7.5ZM12 7.5V11.5M5 11.5H19C20.1046 11.5 21 12.3954 21 13.5V19.5C21 20.6046 20.1046 21.5 19 21.5H5C3.89543 21.5 3 20.6046 3 19.5V13.5C3 12.3954 3.89543 11.5 5 11.5Z" stroke="#675149" stroke-width="2" stroke-linecap="round" stroke-linejoin="round"/>
<circle cx="9.5" cy="16" r="1" stroke="#675149"/>
<circle cx="14.5" cy="16" r="1" stroke="#675149"/>
</svg>
