<svg width="24" height="24" viewBox="0 0 24 24" fill="none" xmlns="http://www.w3.org/2000/svg">
<path d="M14.7472 11.9472C14.7472 13.4812 13.5197 14.7499 12.001 14.7499C10.4822 14.7499 9.24609 13.4812 9.24609 11.9472C9.24609 10.4132 10.4822 9.24988 12.001 9.24988C13.5197 9.24988 14.7472 10.4132 14.7472 11.9472Z" stroke="#675149" stroke-width="2"/>
<path fill-rule="evenodd" clip-rule="evenodd" d="M16.9483 16.3626C15.4174 17.3556 13.6807 18.0003 12.0003 18.0003C10.0348 18.0003 7.9922 17.1183 6.29216 15.8286C4.58097 14.5304 3.36518 12.9327 2.94895 11.684C2.77431 11.1601 2.20799 10.8769 1.68404 11.0516C1.1601 11.2262 0.87694 11.7926 1.05159 12.3165C1.63536 14.0678 3.16958 15.9701 5.08338 17.422C7.00834 18.8823 9.46579 20.0003 12.0003 20.0003C14.3087 20.0003 16.5532 19.0728 18.3897 17.804L16.9483 16.3626ZM19.9635 16.5493C21.3799 15.2524 22.4762 13.7349 22.949 12.3165C23.1236 11.7926 22.8404 11.2262 22.3165 11.0516C21.7926 10.8769 21.2262 11.1601 21.0516 11.684C20.7071 12.7174 19.8151 13.9898 18.5478 15.1337L19.9635 16.5493Z" fill="#675149"/>
<path fill-rule="evenodd" clip-rule="evenodd" d="M6.3215 5.73548C5.88928 5.99787 5.4753 6.281 5.08338 6.57831C3.16958 8.03016 1.63536 9.93246 1.05159 11.6838C0.87694 12.2077 1.1601 12.774 1.68404 12.9487C2.20799 13.1233 2.77431 12.8402 2.94895 12.3162C3.36518 11.0675 4.58097 9.46984 6.29216 8.17169C6.76603 7.8122 7.26652 7.48439 7.78453 7.19852L6.3215 5.73548ZM9.76552 6.35108C10.5064 6.12551 11.2588 6 12.0003 6C13.9658 6 16.0083 6.882 17.7084 8.17169C19.4196 9.46984 20.6354 11.0675 21.0516 12.3162C21.2262 12.8402 21.7926 13.1233 22.3165 12.9487C22.8404 12.774 23.1236 12.2077 22.949 11.6838C22.3652 9.93246 20.831 8.03016 18.9172 6.57831C16.9922 5.118 14.5348 4 12.0003 4C10.6924 4 9.40514 4.29769 8.20092 4.78648L9.76552 6.35108Z" fill="#675149"/>
<path d="M20.5 20.5L3.5 3.5" stroke="#675149" stroke-width="2" stroke-linecap="round"/>
</svg>
