<svg width="22" height="20" viewBox="0 0 22 20" fill="none" xmlns="http://www.w3.org/2000/svg">
<path d="M13.7462 9.94721C13.7462 11.4812 12.5188 12.7499 11 12.7499C9.48124 12.7499 8.24512 11.4812 8.24512 9.94721C8.24512 8.41318 9.48124 7.24988 11 7.24988C12.5188 7.24988 13.7462 8.41318 13.7462 9.94721Z" stroke="#675149" stroke-width="2"/>
<path fill-rule="evenodd" clip-rule="evenodd" d="M15.9483 14.3626C14.4174 15.3556 12.6807 16.0003 11.0003 16.0003C9.03475 16.0003 6.9922 15.1183 5.29216 13.8286C3.58097 12.5304 2.36518 10.9327 1.94895 9.68404C1.77431 9.1601 1.20799 8.87694 0.684044 9.05159C0.160099 9.22624 -0.12306 9.79256 0.0515883 10.3165C0.635359 12.0678 2.16958 13.9701 4.08338 15.422C6.00834 16.8823 8.46579 18.0003 11.0003 18.0003C13.3087 18.0003 15.5532 17.0728 17.3897 15.804L15.9483 14.3626ZM18.9635 14.5493C20.3799 13.2524 21.4762 11.7349 21.949 10.3165C22.1236 9.79256 21.8404 9.22624 21.3165 9.05159C20.7926 8.87694 20.2262 9.1601 20.0516 9.68405C19.7071 10.7174 18.8151 11.9898 17.5478 13.1337L18.9635 14.5493Z" fill="#675149"/>
<path fill-rule="evenodd" clip-rule="evenodd" d="M5.3215 3.73548C4.88928 3.99787 4.4753 4.281 4.08338 4.57831C2.16958 6.03016 0.635359 7.93246 0.051588 9.68377C-0.12306 10.2077 0.1601 10.774 0.684044 10.9487C1.20799 11.1233 1.77431 10.8402 1.94895 10.3162C2.36518 9.06754 3.58097 7.46984 5.29216 6.17169C5.76603 5.8122 6.26652 5.48439 6.78453 5.19852L5.3215 3.73548ZM8.76552 4.35108C9.50638 4.12551 10.2588 4 11.0003 4C12.9658 4 15.0083 4.882 16.7084 6.17169C18.4196 7.46984 19.6354 9.06754 20.0516 10.3162C20.2262 10.8402 20.7926 11.1233 21.3165 10.9487C21.8404 10.774 22.1236 10.2077 21.949 9.68377C21.3652 7.93246 19.831 6.03016 17.9172 4.57831C15.9922 3.118 13.5348 2 11.0003 2C9.69245 2 8.40514 2.29769 7.20092 2.78648L8.76552 4.35108Z" fill="#675149"/>
<path d="M19.5 18.5L2.5 1.5" stroke="#675149" stroke-width="2" stroke-linecap="round"/>
</svg>
