<svg width="current" height="current" viewBox="0 0 32 32" fill="none" xmlns="http://www.w3.org/2000/svg">
<path d="M29.3327 15.9993C29.3327 8.63555 23.3631 2.66602 15.9993 2.66602C8.63555 2.66602 2.66602 8.63555 2.66602 15.9993C2.66602 23.3631 8.63555 29.3327 15.9993 29.3327C23.3631 29.3327 29.3327 23.3631 29.3327 15.9993Z" fill="#FFFCF7" stroke="#675149" stroke-width="2"/>
<path d="M20 13.332C20 15.5412 18.2091 17.332 16 17.332C13.7909 17.332 12 15.5412 12 13.332C12 11.1229 13.7909 9.33203 16 9.33203C18.2091 9.33203 20 11.1229 20 13.332Z" fill="#FFFCF7" stroke="#675149" stroke-width="2"/>
<path d="M24 26.6654C24 23.7198 20.4183 21.332 16 21.332C11.5817 21.332 8 23.7198 8 26.6654" stroke="#675149" stroke-width="2" stroke-linecap="round"/>
</svg>
