<svg width="43" height="43" viewBox="0 0 43 43" fill="none" xmlns="http://www.w3.org/2000/svg">
<path d="M37.625 21.5C37.625 24.6892 36.6793 27.8068 34.9075 30.4586C33.1356 33.1103 30.6172 35.1771 27.6708 36.3976C24.7243 37.618 21.4821 37.9373 18.3542 37.3152C15.2262 36.693 12.353 35.1572 10.0979 32.9021C7.84279 30.647 6.30703 27.7738 5.68484 24.6458C5.06266 21.5179 5.38199 18.2757 6.60245 15.3292C7.82291 12.3828 9.88969 9.86439 12.5414 8.09255C15.1932 6.32071 18.3108 5.375 21.5 5.375C26.015 5.375 30.3329 7.16667 33.5758 10.2842L37.625 14.3333M37.625 14.3333L37.625 5.375M37.625 14.3333H28.6667" stroke="#675149" stroke-width="3.58333" stroke-linecap="round" stroke-linejoin="round"/>
</svg>
