<svg width="24" height="25" viewBox="0 0 24 25" fill="none" xmlns="http://www.w3.org/2000/svg">
<path d="M2.70339 19.1505L6.13121 13.2536C6.40213 12.7875 6.40212 12.2119 6.13119 11.7459L2.70341 5.84955C2.57031 5.6206 2.4936 5.35976 2.51553 5.09585C2.5742 4.38991 2.81461 3.88677 3.46127 3.76742C3.66916 3.72905 3.88054 3.78492 4.07347 3.87137L20.7658 11.3508C20.9846 11.4488 21.1696 11.6082 21.2064 11.8451C21.2647 12.2197 21.2645 12.7875 21.2059 13.16C21.1691 13.3937 20.9863 13.5504 20.7704 13.6472L4.07324 21.1287C3.88046 21.2151 3.66925 21.2709 3.4615 21.2327C2.81465 21.1135 2.5742 20.6102 2.51553 19.9041C2.4936 19.6402 2.5703 19.3794 2.70339 19.1505Z" stroke="#675149" stroke-width="2" stroke-linecap="round"/>
<path d="M21 12.5L6.87281 12.4998" stroke="#675149" stroke-width="2" stroke-linecap="round"/>
</svg>
