<svg width="198" height="197" viewBox="0 0 198 197" fill="none" xmlns="http://www.w3.org/2000/svg">
<g id="Group 141">
<circle id="Ellipse 11" cx="99" cy="98.5" r="98.5" fill="#F0E4D1"/>
<g id="&#237;&#157;&#160;">
<path id="Vector 51" d="M125.376 108.216C116.402 109.153 87.5647 152.173 86.1384 145.272C85.1096 140.295 80.242 129.855 76.1957 121.432C75.6128 120.219 73.6813 119.52 73.0256 118.345C72.6326 117.64 72.2751 117.402 71.5592 117.03C65.2106 113.733 71.9129 112.812 70.8312 112.401C68.7034 111.592 68.8989 109.414 69.4178 108.216C72.1273 101.958 86.6641 101.368 93.896 98.5836C94.7505 98.2546 95.6545 98.1032 96.5555 98.2661C106.68 100.097 140.538 106.633 125.376 108.216Z" fill="#F0E4D1"/>
<path id="Vector 52" d="M122.354 94.2159C113.38 95.1527 84.5432 138.173 83.1169 131.272C82.0882 126.295 77.2205 115.855 73.1742 107.432C72.5913 106.219 70.6598 105.52 70.0041 104.345C69.6111 103.64 69.2536 103.402 68.5377 103.03C62.1891 99.7335 68.8914 98.8117 67.8098 98.4005C65.6819 97.5917 65.8774 95.4144 66.3963 94.2159C69.1058 87.9578 83.6426 87.368 90.8745 84.5836C91.729 84.2546 92.633 84.1032 93.534 84.2661C103.659 86.0968 137.516 92.6333 122.354 94.2159Z" fill="#F0E4D1"/>
<path id="Vector 53" d="M145.52 89.2159C136.546 90.1527 107.709 133.173 106.283 126.272C105.254 121.295 100.387 110.855 96.3402 102.432C95.7573 101.219 93.8259 100.52 93.1701 99.3448C92.7771 98.6403 92.4197 98.4016 91.7037 98.0299C85.3551 94.7335 92.0574 93.8117 90.9758 93.4005C88.8479 92.5917 89.0434 90.4144 89.5623 89.2159C92.2719 82.9578 106.809 82.368 114.041 79.5836C114.895 79.2546 115.799 79.1032 116.7 79.2661C126.825 81.0968 160.682 87.6333 145.52 89.2159Z" fill="#F0E4D1"/>
<g id="Vector 53_2">
<path d="M128.655 53.548C125.756 49.8332 98.392 64.707 96.6032 65.685C96.5396 65.7198 96.4811 65.75 96.416 65.7818C94.5241 66.7064 65.1414 81.1603 66.8873 86.2019C80.2747 88.7317 99.572 92.3783 107.173 93.8146C109.093 94.1775 111.004 93.2025 111.834 91.4453L115.675 83.3112C115.675 83.3112 123.358 64.7645 128.655 53.548Z" fill="#987A6F"/>
<path d="M84.0406 119.551C84.9404 121.3 87.092 121.997 88.8464 121.107L144.844 92.7161C146.599 91.8266 147.291 89.6875 146.392 87.9383L115.675 83.3112L111.834 91.4453C111.004 93.2025 109.093 94.1775 107.173 93.8146C99.572 92.3783 80.2747 88.7317 66.8873 86.2019C68.6912 91.411 84.0406 119.551 84.0406 119.551Z" fill="#987A6F"/>
<path d="M128.655 53.548C123.358 64.7645 115.675 83.3112 115.675 83.3112L146.392 87.9383C146.392 87.9383 131.652 57.3886 128.655 53.548Z" fill="#987A6F"/>
<path d="M128.655 53.548C125.756 49.8332 98.392 64.707 96.6032 65.685C96.5396 65.7198 96.4811 65.75 96.416 65.7818C94.5241 66.7064 65.1414 81.1603 66.8873 86.2019M128.655 53.548C123.358 64.7645 115.675 83.3112 115.675 83.3112M128.655 53.548C131.652 57.3886 146.392 87.9383 146.392 87.9383M66.8873 86.2019C80.2747 88.7317 99.572 92.3783 107.173 93.8146C109.093 94.1775 111.004 93.2025 111.834 91.4453L115.675 83.3112M66.8873 86.2019C68.6912 91.411 84.0406 119.551 84.0406 119.551M97.2675 92.6438L84.0406 119.551M84.0406 119.551V119.551C84.9404 121.3 87.092 121.997 88.8464 121.107L144.844 92.7161C146.599 91.8266 147.291 89.6875 146.392 87.9383V87.9383M115.675 83.3112L146.392 87.9383" stroke="#675149" stroke-width="1.28395" stroke-linecap="round"/>
</g>
<g id="Vector 49">
<path d="M99.7639 123.784C96.9919 124.628 88.1739 146.314 86.2143 146.991C89.1755 147.522 104.09 133.352 111.472 125.916C105.317 124.482 104.043 124.512 99.7639 123.784Z" fill="#F0E4D1"/>
<path d="M149.191 133.954C152.467 133.098 162.914 95.6497 167.728 77.0324C167.573 77.0377 167.415 77.0432 167.254 77.049C166.875 77.1094 166.38 77.2684 165.78 77.5175C162.387 78.9267 155.632 83.2172 147.467 88.8263C132.262 99.2706 112.165 114.286 99.7639 123.784C104.043 124.512 105.317 124.482 111.472 125.916C125.245 129.125 146.442 134.673 149.191 133.954Z" fill="#FFFBF4"/>
<path d="M165.78 77.5175C166.38 77.2684 166.875 77.1094 167.254 77.049C158.713 77.3564 143.339 79.1191 142.463 79.1191C141.528 79.1191 144.361 82.5725 145.096 84.0941L165.78 77.5175Z" fill="#FFFBF4"/>
<path d="M145.096 84.0941C145.948 85.8601 146.888 87.7107 147.467 88.8263C155.632 83.2172 162.387 78.9267 165.78 77.5175L145.096 84.0941Z" fill="#F0E4D1"/>
<path d="M31.5061 99.9296C17.2804 104.209 57.5865 111.699 68.148 115.551C68.8639 115.812 69.707 116.061 70.383 116.508C70.7465 116.739 78.685 112.613 80 112.178L69 91.6777L31.5061 99.9296Z" fill="#FFFCF7"/>
<path d="M167.728 77.0324C162.914 95.6497 152.467 133.098 149.191 133.954C146.442 134.673 125.245 129.125 111.472 125.916M167.728 77.0324C167.573 77.0377 167.415 77.0432 167.254 77.049M167.728 77.0324C167.599 77.0134 167.44 77.0193 167.254 77.049M99.7639 123.784C96.9919 124.628 88.1739 146.314 86.2143 146.991M99.7639 123.784C104.043 124.512 105.317 124.482 111.472 125.916M99.7639 123.784C99.679 123.81 99.7764 123.735 99.7639 123.784ZM99.7639 123.784C112.165 114.286 132.262 99.2706 147.467 88.8263M85.9693 146.895C85.1656 145.1 79.6791 122.662 70.383 116.508M85.9693 146.895C86.0384 146.943 86.1202 146.975 86.2143 146.991M85.9693 146.895C86.0169 147.002 86.0999 147.031 86.2143 146.991M70.383 116.508C69.707 116.061 68.8639 115.812 68.148 115.551C57.5865 111.699 17.2804 104.209 31.5061 99.9296L69 91.6777L80 112.178C78.685 112.613 70.7465 116.739 70.383 116.508ZM147.467 88.8263C146.888 87.7107 145.948 85.8601 145.096 84.0941M147.467 88.8263C155.632 83.2172 162.387 78.9267 165.78 77.5175M111.472 125.916C104.09 133.352 89.1755 147.522 86.2143 146.991M167.254 77.049C158.713 77.3564 143.339 79.1191 142.463 79.1191C141.528 79.1191 144.361 82.5725 145.096 84.0941M167.254 77.049C166.875 77.1094 166.38 77.2684 165.78 77.5175M167.254 77.049L165.78 77.5175M145.096 84.0941L165.78 77.5175" stroke="#675149" stroke-width="1.28395" stroke-linecap="round"/>
</g>
</g>
</g>
</svg>
