<svg width="229" height="107" viewBox="0 0 229 107" fill="none" xmlns="http://www.w3.org/2000/svg">
<path id="Subtract" fill-rule="evenodd" clip-rule="evenodd" d="M0 10C0 4.47715 4.47715 0 10 0H219C224.523 0 229 4.47715 229 10V97C229 102.523 224.523 107 219 107H10C4.47716 107 0 102.523 0 97V10ZM139.993 19.564L139.859 18.7896C146.777 16.1892 165.345 13.429 184.631 23.0104L184.764 23.0761L184.821 23.2118L185.304 24.3422L185.422 24.1068L185.627 23.6969L186.005 23.9563C188.222 25.4769 191.654 28.1182 194.756 31.1105C197.636 33.8876 200.287 37.0179 201.374 39.8647L201.716 39.5318L201.969 39.9935C202.754 41.4294 203.9 43.6273 204.783 45.5546C205.223 46.5167 205.603 47.422 205.84 48.1353C205.957 48.4902 206.045 48.813 206.083 49.0789C206.102 49.2116 206.111 49.3448 206.1 49.4683C206.089 49.586 206.056 49.7383 205.953 49.8677L205.614 50.2922L205.309 49.8427C202.689 45.9776 197.926 40.0297 192.172 34.7705C188.401 31.3241 184.226 28.1942 179.967 26.1308C191.363 32.3879 206.987 45.8435 209.881 67.2465L209.104 67.4223C208.454 65.3975 207.414 62.3578 206.406 59.8192C205.901 58.5483 205.409 57.4136 204.981 56.5967C204.766 56.1865 204.574 55.8709 204.413 55.6611C204.332 55.5558 204.268 55.4897 204.222 55.4526L204.21 55.4433C204.207 55.441 204.205 55.439 204.202 55.4373L204.198 55.4343C203.988 55.4163 203.586 55.3432 203.063 55.2325C202.499 55.1132 201.763 54.9436 200.905 54.7309C199.19 54.3055 196.98 53.706 194.667 52.988C192.355 52.2703 189.934 51.4324 187.799 50.5296C185.673 49.6305 183.797 48.6535 182.599 47.6483L181.975 47.1248L182.77 46.9511L187.257 45.9721L180.148 46.1844L180.002 46.1887L179.888 46.0985C177.366 44.1075 173.535 40.9923 170.236 38.1166C168.587 36.6791 167.066 35.2976 165.907 34.1441C165.328 33.5677 164.834 33.0436 164.459 32.5949C164.093 32.1577 163.808 31.7559 163.685 31.4303L163.551 31.0718L163.903 30.9215L166.964 29.6159L162.454 30.4576L162.281 30.4901L162.14 30.3835C159.782 28.6009 155.835 25.9163 151.669 23.6651C147.484 21.4032 143.15 19.6199 139.993 19.564ZM201.518 40.8405L201.48 40.8777L201.01 41.3352L200.818 40.7078C199.967 37.9175 197.282 34.6581 194.201 31.6863C191.306 28.8948 188.118 26.4088 185.93 24.8774L185.632 25.4723L185.245 26.2437L184.906 25.4499L184.144 23.6615C166.591 14.9919 149.676 16.661 141.889 18.9578C144.952 19.4983 148.602 21.098 152.05 22.9612C156.175 25.1906 160.083 27.8372 162.481 29.6389L170.401 28.1606L170.631 28.9218L164.619 31.4858C164.727 31.6485 164.876 31.8472 165.072 32.0815C165.426 32.5041 165.901 33.0091 166.471 33.5771C167.612 34.7124 169.118 36.0807 170.761 37.5135C173.998 40.3351 177.754 43.3915 180.269 45.3804L191.543 45.0438L191.64 45.8344L183.789 47.5476C184.884 48.305 186.389 49.0646 188.111 49.7928C190.213 50.6817 192.607 51.5108 194.905 52.224C197.201 52.9369 199.396 53.5323 201.098 53.9544C201.949 54.1655 202.675 54.3329 203.228 54.4499C203.794 54.5694 204.15 54.6301 204.281 54.6384C204.467 54.6502 204.618 54.744 204.726 54.8309C204.839 54.9224 204.946 55.0419 205.047 55.1734C205.25 55.4372 205.466 55.7999 205.689 56.2253C206.137 57.0796 206.642 58.2451 207.15 59.524C207.435 60.243 207.723 61.0011 208.004 61.7647C202.384 39.7166 182.877 27.3991 173.118 23.8451L173.322 23.0749C180.066 24.2242 186.915 28.8824 192.712 34.18C197.798 38.8287 202.114 44.0072 204.888 47.8482C204.671 47.2742 204.383 46.6035 204.055 45.8878C203.273 44.1795 202.278 42.2493 201.518 40.8405ZM162.076 61.6507L162.303 61.9589C163.69 61.2978 165.965 61.1333 168.279 61.2094C170.582 61.2852 172.884 61.5974 174.298 61.8618L174.383 61.8777L174.452 61.8258L176.233 60.4797L175.183 61.7133L175.062 61.8552L175.199 61.9821C175.323 62.0973 175.534 62.2104 175.789 62.3214C176.05 62.4353 176.378 62.5564 176.756 62.6817C177.511 62.9324 178.474 63.2039 179.504 63.4719C181.565 64.0079 183.911 64.5327 185.441 64.8523L185.511 64.8668L185.573 64.8333L188.624 63.1969L186.882 64.5976L186.573 64.8461L186.959 64.9386C187.699 65.1162 188.728 65.1343 189.85 65.0642C190.976 64.9937 192.212 64.8329 193.375 64.6434C194.538 64.4538 195.631 64.235 196.471 64.0478C196.89 63.9542 197.247 63.8684 197.519 63.7978C197.771 63.7323 197.962 63.677 198.057 63.6392C198.061 63.6396 198.066 63.6404 198.072 63.6418C198.1 63.648 198.142 63.6629 198.2 63.6912C198.316 63.7476 198.468 63.8435 198.651 63.9754C199.015 64.2382 199.476 64.6255 199.971 65.0695C200.962 65.9563 202.075 67.0543 202.798 67.7951L203.098 67.5497C197.189 58.8562 187.462 56.3884 181.14 56.138C183.443 56.1117 185.941 56.5684 188.332 57.2506C191.98 58.2916 195.346 59.848 197.327 60.9623L197.557 61.092L197.613 60.8335C197.63 60.7547 197.611 60.6812 197.59 60.6276C197.568 60.5714 197.535 60.5153 197.498 60.4617C197.424 60.3542 197.316 60.2325 197.187 60.1035C196.93 59.8441 196.567 59.5323 196.166 59.209C195.363 58.5613 194.387 57.8528 193.733 57.398L193.523 57.2517L193.446 57.471C192.354 56.4672 190.52 55.6795 188.663 55.0952C186.661 54.4657 184.593 54.0604 183.297 53.8796L183.076 53.8487L183.076 54.0719L183.076 54.2001L182.62 53.8124L182.565 53.7659L182.494 53.766C172.012 53.7811 164.524 59.0158 162.076 61.6507ZM193.712 57.8892L193.721 57.8647C194.358 58.3133 195.21 58.938 195.922 59.5121C196.22 59.7526 196.491 59.9823 196.711 60.1851C194.668 59.1146 191.664 57.7964 188.439 56.8762C184.763 55.8276 180.769 55.2861 177.582 56.25L177.66 56.6298C182.683 56.0585 193.854 57.1871 201.09 65.5699C200.802 65.2983 200.512 65.0306 200.231 64.7794C199.732 64.3327 199.259 63.9346 198.879 63.6598C198.689 63.5229 198.516 63.4119 198.371 63.3411C198.298 63.3058 198.225 63.277 198.156 63.2617C198.091 63.2472 198.004 63.2393 197.921 63.2745C197.862 63.2992 197.693 63.3502 197.421 63.4209C197.155 63.4901 196.802 63.5749 196.386 63.6678C195.553 63.8535 194.468 64.0709 193.312 64.2591C192.157 64.4474 190.934 64.6062 189.825 64.6756C188.917 64.7324 188.097 64.7284 187.455 64.6362L190.503 62.185L190.289 61.8618L185.452 64.4566C183.924 64.1367 181.625 63.621 179.602 63.095C178.575 62.8279 177.622 62.5589 176.879 62.3121C176.507 62.1887 176.19 62.0718 175.945 61.9645C175.808 61.905 175.7 61.851 175.618 61.8035L177.679 59.3811L177.414 59.0996L174.285 61.4634C172.85 61.1995 170.573 60.8953 168.292 60.8203C166.385 60.7575 164.448 60.8534 162.997 61.283C165.89 58.5917 172.895 54.1912 182.422 54.1555L183.143 54.7688L183.463 55.041L183.464 54.621L183.465 54.2971C184.75 54.489 186.679 54.8793 188.546 55.4666C190.533 56.0918 192.41 56.9284 193.387 57.9588L193.607 58.1906L193.712 57.8892Z" fill="#F0E4D1"/>
</svg>
