<svg width="229" height="107" viewBox="0 0 229 107" fill="none" xmlns="http://www.w3.org/2000/svg">
<path id="Subtract" fill-rule="evenodd" clip-rule="evenodd" d="M10 0C4.47715 0 0 4.47715 0 10V97C0 102.523 4.47716 107 10 107H50.2268C50.341 104.348 50.6167 100.512 51.1049 96.9188C51.3684 94.9798 51.6946 93.1048 52.0928 91.522C52.4878 89.9515 52.9636 88.6254 53.546 87.8176C53.8095 87.4522 53.8308 87.1058 53.6764 86.7302C53.5102 86.3259 53.135 85.882 52.5744 85.399C51.6199 84.5767 50.2417 83.7328 48.7987 82.8493L48.7985 82.8492C48.5483 82.696 48.2962 82.5416 48.0439 82.3859C46.3642 81.3492 44.6748 80.2516 43.6828 79.1033C43.184 78.5259 42.8301 77.901 42.7705 77.2328C42.7095 76.5491 42.9617 75.8828 43.5477 75.2462C45.6903 72.9186 48.6523 70.1491 51.4415 68.8571C52.8366 68.2109 54.2419 67.9092 55.4975 68.2782C56.7722 68.6529 57.8032 69.6909 58.497 71.5239C59.5526 74.3129 60.2462 76.8006 60.3752 78.9048C62.2756 78.0929 64.4138 77.8001 66.3713 78.74C69.4975 80.241 72.6427 80.0418 75.1393 79.4929C76.3644 79.2235 77.4254 78.8718 78.2508 78.5982L78.2509 78.5982L78.2972 78.5828C78.7089 78.4464 79.0711 78.3269 79.358 78.2527C79.5016 78.2156 79.6378 78.1867 79.7593 78.1738C79.8723 78.1619 80.0144 78.1585 80.146 78.2078C80.5781 78.3697 83.7708 79.5498 86.7641 80.0673C88.2706 80.3278 89.6722 80.4099 90.6402 80.1477C91.1182 80.0182 91.4557 79.814 91.6601 79.5403C91.8599 79.2727 91.9672 78.8919 91.8936 78.3327C91.7512 77.25 90.9929 76.4972 89.7583 75.9054C88.5182 75.3109 86.8777 74.9187 85.1111 74.5248C84.9542 74.4898 84.7964 74.4548 84.6379 74.4197C83.0296 74.0632 81.352 73.6914 79.8755 73.1499C78.2557 72.5558 76.8181 71.7375 75.9663 70.4516C74.3114 67.9533 70.6537 65.4184 66.771 64.5421C65.6898 64.9992 64.6264 65.4608 63.619 65.8982L63.6185 65.8985C61.5775 66.7846 59.7661 67.5711 58.5001 68.0178C58.0205 68.187 57.6036 68.3133 57.2732 68.3773C57.1085 68.4092 56.9522 68.4283 56.8135 68.4253C56.6835 68.4225 56.5193 68.3997 56.3824 68.3012C56.2177 68.1826 56.1553 68.0024 56.1666 67.8272C56.1764 67.6751 56.2398 67.5259 56.3148 67.3922C56.4679 67.1195 56.7489 66.7755 57.149 66.3557C59.7745 63.6014 63.3336 63.1053 66.7032 63.8116C69.2304 62.747 71.8811 61.6996 74.2011 61.0228C75.3766 60.6799 76.477 60.4292 77.4397 60.3213C78.3953 60.2142 79.2512 60.2433 79.9163 60.4925C81.6415 61.1388 83.3161 61.2489 84.9602 61.1766C85.784 61.1404 86.5957 61.0586 87.4048 60.9764L87.4454 60.9723L87.4457 60.9722C88.0675 60.909 88.6887 60.8459 89.3043 60.8052C89.2628 60.6815 89.2328 60.5604 89.217 60.443C89.1805 60.1723 89.2165 59.8934 89.392 59.6615C89.5649 59.433 89.8303 59.3072 90.1325 59.2482C90.4344 59.1893 90.8061 59.1899 91.2445 59.2417C92.989 59.4478 94.9873 60.1965 96.9255 61.0738C98.2295 61.6641 99.5289 62.3236 100.718 62.9271L100.718 62.9273C101.296 63.2205 101.848 63.5004 102.361 63.7528C103.153 64.1419 103.853 64.4654 104.432 64.681C105.029 64.9032 105.436 64.9857 105.668 64.9558C105.769 64.9426 105.797 64.9129 105.805 64.9018C105.818 64.8857 105.85 64.829 105.843 64.6752C105.829 64.3536 105.653 63.805 105.218 62.9491C105.131 62.7769 105.2 62.5665 105.372 62.4791C105.379 62.4757 105.385 62.4726 105.392 62.4697C105.401 62.4658 105.41 62.4624 105.419 62.4593C105.464 62.4351 105.514 62.4202 105.568 62.4174C108.378 62.274 112.39 61.8082 115.807 61.091C117.517 60.7322 119.065 60.3131 120.234 59.8453C120.819 59.6112 121.298 59.3696 121.652 59.1246C122.012 58.8756 122.208 58.6469 122.284 58.4521C122.55 57.771 122.543 56.7853 122.332 55.6147C122.124 54.4562 121.726 53.1693 121.265 51.9187C120.515 49.8871 119.611 47.9872 119.104 46.9223L119.104 46.9221C118.986 46.6749 118.89 46.4727 118.822 46.3243C118.753 46.1737 118.767 46.0219 118.803 45.9035C118.839 45.7865 118.902 45.6752 118.974 45.5737C119.118 45.3702 119.339 45.1445 119.61 44.9053C120.155 44.4235 120.962 43.8346 121.935 43.1886C123.885 41.8942 126.545 40.3433 129.221 38.9198C131.896 37.4969 134.598 36.1946 136.634 35.4011C137.646 35.0062 138.517 34.7282 139.143 34.6311C139.448 34.5838 139.743 34.571 139.977 34.6437C140.101 34.682 140.229 34.7508 140.324 34.872C140.423 34.9972 140.459 35.1443 140.455 35.2876C140.444 35.6487 140.321 36.1501 140.134 36.7244C139.943 37.3082 139.676 37.9992 139.355 38.7526C138.712 40.2599 137.849 42.0334 136.945 43.7278C136.041 45.4215 135.09 47.0444 134.273 48.2481C133.865 48.8487 133.483 49.3545 133.152 49.7141C132.987 49.8934 132.825 50.0457 132.672 50.156C132.529 50.2588 132.346 50.3606 132.144 50.3619C132.005 50.3628 131.844 50.3296 131.683 50.2853C131.516 50.2393 131.323 50.1736 131.112 50.094C130.864 50.0008 130.584 49.8857 130.28 49.7551C130.331 49.8101 130.369 49.8708 130.398 49.927C130.465 50.055 130.513 50.2137 130.548 50.3918C130.863 51.9572 130.529 53.5875 130.004 54.9864C129.508 56.3086 128.829 57.4532 128.313 58.1895C128.388 58.473 128.487 58.5987 128.563 58.6419C128.62 58.6746 128.775 58.7177 129.138 58.4897C130.893 57.3857 135.06 55.4652 138.616 53.8398L139.309 53.5234L139.309 53.5231C140.822 52.8319 142.187 52.2086 143.163 51.7413C143.318 51.667 143.463 51.5971 143.596 51.5317C142.7 51.4959 141.463 51.4006 140.198 51.1837C139.173 51.008 138.117 50.7503 137.203 50.373C136.295 49.9985 135.488 49.4896 135.013 48.787C134.891 48.607 134.786 48.4051 134.781 48.2021C134.778 48.0882 134.807 47.9676 134.886 47.8625C134.962 47.7609 135.063 47.7024 135.156 47.669C135.328 47.6067 135.535 47.6084 135.727 47.6279C135.931 47.6484 136.167 47.6947 136.426 47.7578C137.26 47.9616 138.435 48.3707 139.687 48.8066L139.687 48.8066C139.973 48.9062 140.263 49.0071 140.554 49.1073C142.137 49.6529 143.755 50.1804 144.988 50.393C145.611 50.5003 146.091 50.5188 146.408 50.4455C146.563 50.4099 146.653 50.3581 146.705 50.3075C146.751 50.2628 146.786 50.2 146.796 50.0916C146.832 49.6716 146.725 49.0947 146.493 48.3726C146.264 47.6584 145.926 46.8388 145.531 45.9461C145.308 45.4414 145.067 44.9133 144.819 44.3702L144.818 44.3698C144.195 43.0054 143.528 41.5463 142.998 40.1267C142.259 38.149 141.751 36.1666 142.016 34.5403C142.151 33.7154 142.486 32.9735 143.094 32.3766C143.697 31.7841 144.545 31.3579 145.67 31.1175L150.317 29.802C150.385 29.7343 150.48 29.6945 150.583 29.7C150.61 29.7014 150.649 29.6995 150.702 29.693L152.513 29.1806C153.181 28.952 153.984 28.6574 154.889 28.3127C156.891 27.5504 159.383 26.549 162.024 25.4875L162.024 25.4874L163.193 25.0177C166.261 23.7859 169.457 22.5105 172.26 21.4656C175.056 20.4235 177.484 19.6015 179.006 19.2863C180.455 18.9861 181.367 18.556 182.138 18.0143C182.673 17.6388 183.134 17.2168 183.669 16.7278C183.929 16.4899 184.207 16.236 184.519 15.964C186.405 14.3185 189.297 12.2483 196.334 9.86407C198.104 9.26416 199.533 8.99663 200.673 9.00957C201.816 9.02256 202.689 9.31874 203.311 9.86697C203.933 10.4147 204.261 11.1759 204.39 12.0341C204.518 12.8895 204.453 13.8624 204.27 14.8721C203.614 18.4833 201.395 22.8379 200.48 24.6331C200.377 24.8353 200.291 25.0051 200.225 25.1376C199.852 25.8891 199.018 26.6549 197.966 27.3469C196.902 28.0466 195.572 28.6993 194.149 29.2083C191.973 29.9864 189.52 30.4493 187.445 30.184C188.007 31.3346 188.13 32.155 187.861 33.0209C187.729 33.4452 187.507 33.864 187.232 34.3213C187.082 34.5721 186.906 34.8487 186.714 35.1502L186.714 35.1508L186.711 35.1549C186.577 35.3661 186.435 35.5895 186.288 35.825C186.333 37.2173 186.463 38.656 186.692 39.9043C186.929 41.1984 187.265 42.2367 187.688 42.8204C188.22 43.5551 188.64 43.8848 188.924 43.973C189.052 44.0127 189.139 43.9999 189.206 43.9678C189.279 43.9323 189.369 43.8534 189.459 43.6931C189.643 43.3641 189.771 42.7896 189.793 41.9748C189.813 41.1706 189.729 40.1699 189.519 39.0183C189.296 37.7942 189.414 36.8742 189.865 36.0851C190.306 35.3146 191.041 34.7119 191.945 34.0726C192.244 33.8609 192.566 33.6425 192.908 33.4098C194.651 32.2266 196.937 30.6748 199.55 27.7779C202.704 24.2818 204.77 21.9982 207.794 20.1428C210.816 18.2895 214.775 16.8739 221.703 15.0467C224.63 14.2748 227.036 13.5131 229 12.7925V10C229 4.47715 224.523 0 219 0H10ZM229 13.5368C227.057 14.2403 224.707 14.9777 221.881 15.7229C214.96 17.5482 211.088 18.9432 208.16 20.7389C205.236 22.5326 203.235 24.7364 200.069 28.2463C197.395 31.2107 195.038 32.8103 193.293 33.9944C192.954 34.2241 192.639 34.4381 192.349 34.6435C191.449 35.2799 190.829 35.8072 190.472 36.4322C190.126 37.0386 190.004 37.7796 190.207 38.893C190.423 40.0789 190.514 41.129 190.492 41.9929C190.47 42.8461 190.336 43.5569 190.069 44.0343C189.933 44.2772 189.751 44.4818 189.509 44.5981C189.26 44.7177 188.988 44.725 188.717 44.6409C188.204 44.4818 187.67 43.9892 187.121 43.2305C186.601 42.512 186.244 41.3398 186.004 40.0305C185.825 39.0583 185.707 37.982 185.639 36.9047C185.498 37.1495 185.352 37.4094 185.203 37.6862C184.139 39.6567 183.915 42.174 183.78 44.0827L183.76 44.3731C183.705 45.1791 183.656 45.8853 183.54 46.3244C183.506 46.4519 183.461 46.5781 183.397 46.6859C183.334 46.7931 183.234 46.9115 183.078 46.9707C182.913 47.033 182.752 47.0057 182.621 46.947C182.496 46.8909 182.381 46.7997 182.274 46.6956C182.009 46.436 181.859 45.9966 181.761 45.525C181.658 45.0336 181.597 44.4269 181.562 43.7578C181.493 42.471 181.517 40.9056 181.539 39.3962V39.395L181.542 39.2143C181.565 37.6392 181.583 36.1454 181.496 35.0691C181.453 34.5258 181.385 34.1227 181.292 33.8757C181.26 33.7893 181.231 33.7395 181.212 33.7128C181.182 33.736 181.131 33.7997 181.084 33.9765C181.018 34.2247 180.99 34.5933 180.997 35.0814C181.005 35.7932 181.083 36.6859 181.172 37.701C181.204 38.0751 181.238 38.4658 181.271 38.8702C181.391 40.3588 181.488 42.0106 181.404 43.6154C181.32 45.2178 181.055 46.7969 180.434 48.131C180.206 48.62 179.908 48.9943 179.498 49.0984C179.067 49.2076 178.681 48.9816 178.38 48.6831C178.073 48.3774 177.777 47.9237 177.497 47.3814C177.214 46.8345 176.936 46.1768 176.67 45.4467C175.657 42.6644 174.783 38.7416 174.469 35.6315C173.429 35.9463 172.276 36.1226 170.983 36.0914C170.56 36.0812 170.214 36.0401 169.95 35.9601C169.697 35.8833 169.442 35.7467 169.329 35.4866C169.212 35.2171 169.302 34.9483 169.421 34.746C169.544 34.5383 169.739 34.3259 169.972 34.1137C170.883 33.2831 172.701 32.1746 174.726 30.9787C174.85 30.7331 175.026 30.5185 175.276 30.4044C175.572 30.2692 175.715 30.1403 175.768 30.0569C175.79 30.0211 175.789 30.0041 175.789 30.0017C175.789 29.9997 175.789 29.9828 175.763 29.9485C175.702 29.8681 175.541 29.7456 175.202 29.6276C174.873 29.513 174.415 29.416 173.817 29.3565C171.415 29.1178 166.925 29.4988 159.93 31.4626C158.177 31.9547 156.982 32.1725 156.28 32.1524C156.101 32.1472 155.936 32.1265 155.795 32.0821C155.656 32.0383 155.51 31.962 155.409 31.8247C155.181 31.5159 155.339 31.1671 155.482 30.9552C155.643 30.716 155.907 30.4549 156.238 30.1824C156.573 29.9059 156.995 29.6024 157.488 29.2806C158.475 28.6366 159.763 27.9089 161.251 27.1645C164.226 25.6757 168.016 24.1107 171.819 23.0112C175.614 21.914 179.456 21.2695 182.52 21.6535C183.431 21.7678 184.128 21.9455 184.622 22.1921C185.118 22.4399 185.457 22.7836 185.544 23.2418C185.628 23.6845 185.456 24.1317 185.181 24.5448C184.902 24.9639 184.483 25.4003 183.974 25.8438C182.169 27.4185 179.028 29.2626 176.188 30.9306C175.88 31.1112 175.576 31.2897 175.277 31.4656C175.163 31.7816 175.087 32.2428 175.058 32.8357C175.031 33.3699 175.044 33.9909 175.09 34.6738C177.079 33.8809 178.604 32.5672 179.997 31.3671L179.999 31.3659C180.231 31.1658 180.46 30.9689 180.686 30.7781C181.514 30.0802 182.329 29.4534 183.183 29.1046C184.055 28.7482 184.969 28.6819 185.973 29.0945C188.052 29.9493 191.134 29.5437 193.913 28.5498C195.292 28.0568 196.571 27.4277 197.581 26.7627C198.604 26.09 199.31 25.4083 199.599 24.8265C199.667 24.6881 199.756 24.5137 199.861 24.3079L199.861 24.3071C200.784 22.4933 202.947 18.2445 203.581 14.7473C203.757 13.7788 203.811 12.8893 203.698 12.138C203.586 11.3894 203.312 10.7996 202.849 10.3917C202.386 9.9844 201.692 9.72054 200.665 9.70887C199.633 9.69716 198.288 9.94035 196.558 10.5264C189.594 12.8861 186.786 14.9146 184.979 16.4909C184.698 16.7355 184.436 16.9752 184.182 17.2071L184.181 17.2078L184.181 17.2079C183.626 17.7152 183.112 18.1851 182.54 18.5866C181.683 19.1883 180.681 19.6534 179.148 19.9711C177.686 20.2739 175.305 21.0768 172.504 22.1209C169.711 23.1623 166.522 24.4346 163.454 25.6667L162.285 26.1363C159.645 27.1973 157.147 28.2015 155.138 28.9663C154.392 29.2504 153.711 29.5023 153.114 29.7122C153.08 29.738 153.041 29.7579 152.997 29.7702L152.721 29.8484C152.545 29.9086 152.377 29.9643 152.219 30.0153C151.834 30.1397 151.499 30.2377 151.226 30.3032C151.092 30.3355 150.963 30.3622 150.845 30.3793L145.849 31.7935L145.838 31.7967L145.827 31.7991C144.79 32.0192 144.07 32.3975 143.584 32.8755C143.099 33.3512 142.822 33.949 142.707 34.6529C142.473 36.084 142.918 37.9153 143.653 39.882C144.174 41.2767 144.824 42.6986 145.443 44.0544L145.444 44.055L145.444 44.0558C145.695 44.6045 145.941 45.1423 146.171 45.6632C146.568 46.561 146.919 47.4082 147.159 48.159C147.398 48.902 147.541 49.5884 147.492 50.1518C147.47 50.4098 147.371 50.6345 147.193 50.808C147.022 50.9757 146.8 51.0729 146.566 51.1269C146.183 51.2154 145.705 51.2022 145.184 51.131C145.204 51.2185 145.188 51.3004 145.167 51.3532C145.14 51.4225 145.097 51.4696 145.077 51.4908C145 51.5716 144.868 51.6527 144.746 51.7226C144.474 51.8793 144.028 52.1025 143.465 52.3721C142.483 52.8423 141.112 53.4686 139.6 54.159L139.599 54.1595L138.907 54.4759C135.326 56.1126 131.216 58.0092 129.51 59.0817C129.067 59.3602 128.61 59.4747 128.215 59.2487C128.045 59.151 127.916 59.0053 127.82 58.834L127.813 58.8422C127.745 58.9204 127.655 58.9803 127.547 59.0081C127.442 59.0349 127.343 59.0263 127.259 59.0045C127.1 58.9634 126.954 58.8644 126.83 58.7603C126.575 58.5463 126.282 58.1985 125.973 57.775C125.348 56.92 124.597 55.672 123.862 54.3175C123.127 52.9609 122.402 51.4866 121.833 50.1739C121.269 48.8723 120.843 47.6966 120.726 46.9512C120.691 46.734 120.702 46.5192 120.789 46.3276C120.879 46.1289 121.035 45.9932 121.219 45.9113C121.559 45.7602 122.014 45.7821 122.475 45.8648C123.424 46.0348 124.72 46.5278 126.039 47.0912C126.906 47.4612 127.802 47.8703 128.634 48.2504C129.074 48.4512 129.496 48.6438 129.886 48.8183C130.455 49.0725 130.956 49.2882 131.358 49.4396C131.559 49.5153 131.73 49.5729 131.869 49.6111C132.007 49.6491 132.091 49.6617 132.134 49.6626C132.134 49.6625 132.135 49.6622 132.136 49.6616C132.146 49.6581 132.187 49.6438 132.264 49.5884C132.363 49.5168 132.488 49.4022 132.637 49.2403C132.935 48.9176 133.294 48.4443 133.694 47.8551C134.493 46.6794 135.43 45.0801 136.328 43.3985C137.225 41.7177 138.079 39.963 138.711 38.4784C139.028 37.7359 139.287 37.0652 139.469 36.5075C139.644 35.9693 139.738 35.5638 139.754 35.3071C139.672 35.2871 139.512 35.2815 139.25 35.3222C138.703 35.407 137.892 35.6611 136.888 36.0527C134.889 36.832 132.213 38.12 129.549 39.5372C126.887 40.9539 124.248 42.4932 122.322 43.7713C121.357 44.4116 120.581 44.9795 120.073 45.4293C119.816 45.656 119.643 45.8396 119.545 45.9773C119.511 46.0261 119.491 46.0615 119.481 46.0844C119.544 46.2193 119.628 46.3959 119.729 46.6081L119.729 46.6087C120.233 47.6671 121.158 49.6096 121.921 51.6765C122.389 52.9458 122.802 54.2756 123.021 55.4909C123.237 56.6941 123.274 57.8392 122.936 58.7061C122.786 59.0903 122.458 59.4178 122.05 59.6997C121.637 59.9858 121.105 60.2501 120.494 60.4946C119.27 60.9841 117.678 61.413 115.951 61.7755C112.677 62.4626 108.872 62.9204 106.064 63.0902C106.361 63.7345 106.524 64.2495 106.542 64.6438C106.553 64.8926 106.509 65.1363 106.358 65.3305C106.203 65.5297 105.981 65.6203 105.757 65.6493C105.337 65.7037 104.784 65.5582 104.188 65.3364C103.574 65.1079 102.848 64.7713 102.053 64.3804C101.524 64.1205 100.964 63.8364 100.382 63.5412L100.382 63.5407C99.2002 62.9411 97.9278 62.2952 96.6371 61.7109C94.7111 60.8391 92.7945 60.129 91.1625 59.9362C90.7612 59.8888 90.4695 59.895 90.2665 59.9346C90.0638 59.9741 89.9828 60.0397 89.9497 60.0835C89.9192 60.1238 89.8897 60.1981 89.9101 60.3495C89.9253 60.4627 89.9669 60.6022 90.0396 60.7687C91.6116 60.7194 93.1678 60.8764 94.6828 61.6345C95.2697 61.9281 95.9457 62.2555 96.6624 62.6027L96.6632 62.6031C98.6244 63.5531 100.891 64.651 102.472 65.6082C103.014 65.9364 103.487 66.255 103.845 66.5521C104.025 66.7007 104.181 66.8492 104.305 66.9959C104.427 67.1399 104.531 67.2994 104.584 67.4707C104.639 67.6518 104.637 67.8528 104.53 68.0396C104.431 68.2152 104.265 68.3328 104.086 68.4142C103.734 68.5737 103.196 68.6538 102.477 68.6738L102.325 68.678L102.218 68.5691C102.118 68.4677 101.86 68.322 101.404 68.1607C100.965 68.0055 100.392 67.8522 99.718 67.7099C98.622 67.4787 97.2755 67.2805 95.8342 67.15C97.1371 68.335 98.4534 69.4751 99.5561 70.4191C99.9085 70.7209 100.241 71.0038 100.544 71.2623L100.552 71.2691C101.367 71.9632 101.974 72.4803 102.211 72.7109C102.629 73.1167 102.932 73.7044 103.139 74.2965C103.347 74.8935 103.467 75.5285 103.499 76.0591C103.515 76.324 103.509 76.5731 103.477 76.7839C103.447 76.9776 103.386 77.2047 103.238 77.3597C103.155 77.4472 103.038 77.5168 102.892 77.5283C102.752 77.5394 102.629 77.494 102.531 77.4355C102.346 77.3247 102.176 77.1204 102.013 76.8653C101.798 76.5295 101.191 75.8982 100.284 75.0796C99.3895 74.2726 98.2349 73.3115 96.9593 72.323C94.4366 70.3681 91.4633 68.3239 89.1096 67.1532C88.4676 67.2284 87.8629 67.3303 87.3111 67.4614C88.3016 68.1651 89.6518 69.0123 91.0944 69.9176L91.0946 69.9176C92.052 70.5184 93.0501 71.1447 94.0108 71.7715C95.3553 72.6488 96.6216 73.5247 97.5685 74.3189C98.0415 74.7156 98.4446 75.0999 98.7395 75.461C99.0272 75.8131 99.2469 76.1846 99.2859 76.5532C99.327 76.9431 99.2944 77.2873 99.1626 77.5673C99.0249 77.8598 98.7924 78.0525 98.5028 78.1471C98.2257 78.2376 97.9119 78.234 97.5938 78.1779C97.2727 78.1213 96.9235 78.0068 96.5612 77.8508C95.1209 77.2309 93.3169 75.8867 91.9181 74.4199C91.154 73.6187 89.5874 72.8007 87.725 72.0965C85.9285 71.4172 83.912 70.8639 82.2079 70.5403C81.2619 71.1699 80.4281 71.5907 79.7336 71.6732C79.36 71.7176 79.0052 71.6668 78.6968 71.4784C78.3899 71.2909 78.1688 70.9916 78.0152 70.613C77.9557 70.4663 77.9316 70.2974 77.9888 70.128C78.0456 69.9599 78.165 69.8431 78.2908 69.7652C78.5266 69.6192 78.8639 69.5598 79.2195 69.5389C79.9235 69.4977 80.9243 69.5989 82.053 69.8006C82.7632 69.3118 83.5683 68.6879 84.4698 67.951C84.8412 67.6474 85.301 67.3969 85.8218 67.1904C85.7498 67.1265 85.6829 67.0643 85.6214 67.0037C85.4424 66.8273 85.2873 66.6439 85.201 66.4611C85.1119 66.2719 85.0649 65.9989 85.2661 65.7719C85.4271 65.5904 85.6815 65.5271 85.912 65.501C86.3538 65.4509 86.8778 65.5381 87.4415 65.7087C87.9849 65.8732 88.5904 66.1232 89.2346 66.4355C90.7044 66.2776 92.3242 66.2532 93.9131 66.3211C93.0445 65.4965 92.2193 64.6746 91.5116 63.9045C90.6994 63.0209 90.0251 62.1876 89.6221 61.4867C88.9322 61.5241 88.2297 61.5955 87.5066 61.669L87.4755 61.6722C86.6689 61.7542 85.8378 61.838 84.991 61.8753C83.294 61.9499 81.5161 61.8386 79.671 61.1474C79.1583 60.9553 78.4322 60.9138 77.5176 61.0163C76.6101 61.118 75.5521 61.3572 74.397 61.6942C72.3762 62.2836 70.088 63.1633 67.8373 64.0956C71.5287 65.1692 74.9169 67.6011 76.5493 70.0654C77.278 71.1654 78.546 71.9174 80.1163 72.4933C81.5462 73.0177 83.1772 73.3794 84.7951 73.7382L84.7953 73.7382C84.9515 73.7729 85.1075 73.8075 85.2633 73.8422C87.0148 74.2327 88.7359 74.6398 90.0606 75.2748C91.3906 75.9123 92.3998 76.8192 92.587 78.2415C92.6782 78.9348 92.5546 79.5113 92.2205 79.9587C91.8909 80.4 91.3917 80.6687 90.823 80.8227C89.6978 81.1275 88.1666 81.0195 86.645 80.7564C83.6036 80.2306 80.3823 79.0429 79.9103 78.8663L79.9094 78.8663C79.9029 78.8658 79.8798 78.8643 79.833 78.8693C79.7609 78.8769 79.6624 78.8963 79.5331 78.9298C79.2738 78.9968 78.9365 79.1077 78.5172 79.2467L78.4644 79.2642C77.6404 79.5373 76.5504 79.8987 75.2895 80.1759C72.7136 80.7422 69.391 80.9656 66.0686 79.3704C64.2767 78.51 62.2589 78.8067 60.3969 79.66C60.3885 81.0548 60.0963 82.2801 59.4341 83.2895C58.7339 84.3568 57.6438 85.1467 56.1285 85.6483C55.6702 85.8 55.2783 85.868 54.9627 85.8324C54.6296 85.7949 54.3463 85.6329 54.2207 85.3164C54.1097 85.0368 54.1563 84.714 54.2555 84.4171C54.3582 84.1093 54.5375 83.7692 54.7716 83.4167C55.6753 82.0554 57.5221 80.32 59.6908 79.224C59.616 77.1762 58.9409 74.6723 57.8429 71.7714C57.1999 70.0726 56.3015 69.2435 55.3003 68.9492C54.28 68.6493 53.063 68.8768 51.7355 69.4917C49.0797 70.7219 46.1961 73.4018 44.0622 75.7198C43.5791 76.2446 43.4272 76.724 43.4671 77.1707C43.5083 77.633 43.7603 78.1233 44.212 78.6461C45.1212 79.6985 46.7123 80.7422 48.4112 81.7908C48.6566 81.9422 48.9041 82.0937 49.1516 82.2452L49.1535 82.2464L49.1537 82.2465C50.592 83.1267 52.0293 84.0063 53.0308 84.8692C53.6174 85.3746 54.0937 85.9059 54.3232 86.4642C54.5645 87.0511 54.5258 87.6545 54.1133 88.2266C53.6142 88.9189 53.1634 90.1324 52.771 91.6926C52.3816 93.2405 52.0595 95.0874 51.7979 97.013C51.315 100.567 51.041 104.365 50.9268 107H219C224.523 107 229 102.523 229 97V13.5368ZM186.633 33.9611C186.522 34.1465 186.401 34.3386 186.27 34.5449C186.277 33.1568 186.369 31.9143 186.526 31.0814C186.575 30.8169 186.63 30.6029 186.686 30.4429C186.702 30.3972 186.718 30.3587 186.732 30.3266C186.742 30.3435 186.752 30.3624 186.763 30.3835C186.769 30.3943 186.775 30.4056 186.781 30.4176C187.332 31.5217 187.394 32.1649 187.193 32.8131C187.086 33.1557 186.9 33.5168 186.633 33.9611ZM185.707 29.7413C185.854 29.8019 186.006 29.8568 186.16 29.9061C186.107 30.0012 186.064 30.1057 186.027 30.2098C185.954 30.4161 185.892 30.6682 185.838 30.9524C185.63 32.0634 185.534 33.8028 185.583 35.6352C185.278 36.129 184.944 36.6939 184.587 37.354C183.442 39.4762 183.216 42.1424 183.083 44.0337L183.064 44.3009L183.064 44.3018C183.006 45.1424 182.962 45.7754 182.864 46.1449C182.852 46.1898 182.84 46.2263 182.829 46.2555C182.81 46.2398 182.788 46.2201 182.763 46.1954C182.66 46.0946 182.541 45.8429 182.445 45.3825C182.354 44.9419 182.295 44.3757 182.26 43.7207C182.193 42.4583 182.216 40.9141 182.238 39.3945L182.238 39.3929L182.241 39.2246C182.264 37.661 182.283 36.1297 182.194 35.0131C182.149 34.46 182.076 33.9746 181.947 33.631C181.884 33.4608 181.794 33.2884 181.655 33.1656C181.498 33.027 181.295 32.9676 181.078 33.0185C180.681 33.1116 180.496 33.4639 180.408 33.797C180.317 34.1411 180.291 34.5885 180.297 35.0902C180.306 35.8299 180.388 36.7623 180.477 37.7881L180.477 37.7888C180.509 38.1574 180.542 38.5381 180.574 38.9263C180.693 40.408 180.787 42.0221 180.706 43.5789C180.624 45.1381 180.367 46.6165 179.8 47.8359C179.594 48.2777 179.417 48.3973 179.326 48.4205C179.255 48.4384 179.113 48.4248 178.873 48.187C178.641 47.9565 178.385 47.5773 178.118 47.0602C177.853 46.5478 177.587 45.9195 177.327 45.2073C176.317 42.4335 175.443 38.4787 175.149 35.4007C177.359 34.5682 179.035 33.1221 180.466 31.8873L180.466 31.8868C180.696 31.6889 180.919 31.4965 181.137 31.3129C181.964 30.6157 182.705 30.0551 183.447 29.752C184.17 29.4566 184.893 29.4066 185.707 29.7413ZM140.326 49.7685C141.477 50.1652 142.68 50.5643 143.75 50.8377C142.877 50.8072 141.611 50.7165 140.316 50.4944C139.319 50.3234 138.318 50.0768 137.469 49.7266C136.615 49.3737 135.955 48.932 135.592 48.3953C135.578 48.3731 135.565 48.3529 135.553 48.3345C135.549 48.3281 135.546 48.3218 135.542 48.3158C135.574 48.3168 135.613 48.3192 135.657 48.3237C135.815 48.3396 136.017 48.3777 136.26 48.4372C137.058 48.6322 138.19 49.0259 139.44 49.461L139.44 49.4613L139.445 49.4629C139.733 49.5632 140.028 49.6657 140.326 49.7685ZM129.349 54.7406C129.017 55.6253 128.598 56.4289 128.208 57.0705C128.212 56.5954 128.259 56.0498 128.341 55.4701C128.485 54.4421 128.732 53.3427 129.012 52.4069C129.293 51.4666 129.593 50.7371 129.832 50.3984C129.842 50.4355 129.853 50.4789 129.863 50.5294C130.141 51.9159 129.851 53.4045 129.349 54.7406ZM129.756 49.5261C129.794 49.5428 129.831 49.5594 129.868 49.5758C129.747 49.5805 129.641 49.6283 129.562 49.6816C129.449 49.7575 129.353 49.8665 129.273 49.9781C128.957 50.4166 128.626 51.2544 128.342 52.2068C128.053 53.1742 127.798 54.308 127.648 55.3728C127.51 56.3555 127.457 57.3114 127.567 58.0281C127.493 58.1284 127.424 58.2157 127.364 58.289C127.34 58.2728 127.312 58.2515 127.279 58.2243C127.092 58.067 126.839 57.7759 126.538 57.3626C125.94 56.5441 125.205 55.3273 124.477 53.9842C123.75 52.6432 123.035 51.1874 122.475 49.8958C121.91 48.5931 121.519 47.4906 121.416 46.8423C121.396 46.7111 121.413 46.6455 121.425 46.6174C121.435 46.5965 121.452 46.5733 121.504 46.5502C121.637 46.491 121.908 46.4736 122.351 46.5532C123.212 46.7075 124.442 47.1694 125.765 47.7344C126.624 48.1014 127.504 48.5031 128.331 48.8807C128.773 49.0826 129.2 49.2776 129.601 49.4567C129.653 49.4801 129.705 49.5033 129.756 49.5261ZM57.6552 66.8383C59.8013 64.5869 62.6424 63.9528 65.5104 64.3187C64.7522 64.6436 64.0129 64.9646 63.3044 65.2723L63.3041 65.2724C61.2815 66.1506 59.5104 66.9197 58.2674 67.3583C57.798 67.5239 57.4195 67.6366 57.1402 67.6907C57.0581 67.7066 56.989 67.7165 56.9319 67.7217C57.0429 67.5292 57.2712 67.2411 57.6552 66.8383ZM55.3542 83.8035C56.1452 82.6119 57.7628 81.0616 59.6884 80.0149C59.6363 81.1576 59.3644 82.1207 58.8493 82.9059C58.2529 83.8151 57.3069 84.5215 55.9087 84.9844C55.4882 85.1236 55.2093 85.1564 55.041 85.1375C54.8949 85.121 54.8773 85.0755 54.8713 85.0599L54.8707 85.0584C54.8505 85.0075 54.8386 84.8789 54.9188 84.6385C54.9955 84.409 55.1404 84.1256 55.3542 83.8035ZM92.0265 63.4313C91.3513 62.6967 90.8007 62.0266 90.4277 61.4603C91.8045 61.4488 93.1104 61.6297 94.3699 62.2599C94.9758 62.563 95.6655 62.8971 96.3915 63.2488L96.3916 63.2489C98.3442 64.1947 100.559 65.2676 102.109 66.2064C102.639 66.527 103.079 66.8251 103.399 67.0905C103.559 67.2231 103.683 67.3423 103.771 67.447C103.862 67.5544 103.901 67.6301 103.915 67.6749C103.917 67.6825 103.918 67.6883 103.919 67.6926L103.92 67.6978L103.918 67.7002C103.914 67.7041 103.908 67.7102 103.899 67.7179C103.879 67.7336 103.847 67.7544 103.797 67.7773C103.594 67.8691 103.216 67.9446 102.593 67.9701C102.362 67.791 102.021 67.6372 101.637 67.5013C101.159 67.3324 100.554 67.1716 99.8623 67.0256C98.5086 66.74 96.7967 66.5059 94.9989 66.3818C93.9164 65.3744 92.8811 64.3612 92.0265 63.4313ZM90.3953 67.0401C91.7824 66.9548 93.2664 66.9726 94.7052 67.0633C96.2242 68.4693 97.8115 69.8461 99.1012 70.9504C99.4703 71.2663 99.8134 71.5587 100.123 71.8225L100.129 71.8278L100.13 71.8284C100.929 72.5093 101.504 72.9991 101.724 73.2126C102.032 73.5116 102.29 73.9848 102.478 74.5265C102.665 75.0632 102.773 75.6349 102.801 76.1009C102.815 76.3344 102.808 76.531 102.786 76.678C102.783 76.6964 102.78 76.7132 102.777 76.7286C102.73 76.6744 102.672 76.597 102.602 76.4885C102.329 76.0609 101.65 75.3698 100.753 74.5603C99.8425 73.7394 98.674 72.767 97.3877 71.7702C95.1834 70.0621 92.6158 68.2689 90.3953 67.0401ZM87.2389 66.3781C87.4548 66.4435 87.6844 66.5246 87.9263 66.6202C87.4576 66.7041 87.0115 66.8057 86.5959 66.9269C86.4014 66.7716 86.2394 66.6308 86.1122 66.5055C85.9869 66.382 85.9084 66.2861 85.8641 66.2169C85.895 66.2096 85.9363 66.202 85.9907 66.1959C86.2948 66.1614 86.7128 66.2188 87.2389 66.3781ZM84.9124 68.4925C85.2927 68.1817 85.8147 67.9182 86.4564 67.7031C87.4911 68.482 89.0836 69.4815 90.7715 70.5409L90.772 70.5412C91.7215 71.1372 92.7011 71.752 93.6286 72.3572C94.9689 73.2317 96.2059 74.0888 97.1191 74.8547C97.576 75.2379 97.9422 75.5903 98.1979 75.9034C98.461 76.2255 98.5734 76.4655 98.5904 76.6266C98.624 76.9452 98.5874 77.1472 98.5299 77.2694C98.4783 77.379 98.4014 77.4445 98.2857 77.4823C98.1575 77.5241 97.9702 77.5342 97.7153 77.4892C97.4634 77.4448 97.1678 77.3506 96.8377 77.2085C95.508 76.6361 93.7789 75.3578 92.4242 73.9373C91.5419 73.0121 89.8416 72.1491 87.9723 71.4423C86.364 70.8342 84.5865 70.3258 82.9985 69.9865C83.5866 69.5565 84.2251 69.0542 84.9124 68.4925ZM79.2605 70.2371C79.7347 70.2093 80.3918 70.255 81.169 70.3661C80.5462 70.7288 80.0434 70.9321 79.6511 70.9787C79.3917 71.0095 79.2041 70.9688 79.0613 70.8816C78.9179 70.794 78.7799 70.6351 78.6656 70.3558C78.7483 70.3079 78.9345 70.2562 79.2605 70.2371ZM174.359 32.8012C174.329 33.4221 174.347 34.1403 174.406 34.9188C173.399 35.2397 172.275 35.423 171 35.3922C170.603 35.3827 170.329 35.3442 170.153 35.2908C170.04 35.2565 169.993 35.2243 169.976 35.2096C169.979 35.1926 169.99 35.1585 170.024 35.1013C170.094 34.9822 170.229 34.825 170.443 34.6306C171.2 33.941 172.673 33.0139 174.441 31.9607C174.401 32.2199 174.374 32.5022 174.359 32.8012ZM169.974 35.2204C169.974 35.2223 169.974 35.2231 169.975 35.223C169.975 35.2229 169.975 35.2225 169.975 35.2217L169.974 35.2204ZM183.515 25.3168C181.897 26.7281 179.148 28.3779 176.486 29.9439C176.473 29.7884 176.412 29.6478 176.321 29.5273C176.137 29.2829 175.819 29.102 175.432 28.9672C175.035 28.8289 174.519 28.7236 173.886 28.6606C171.359 28.4094 166.771 28.8155 159.741 30.7893C157.987 31.2816 156.885 31.4701 156.3 31.4533C156.167 31.4495 156.076 31.4353 156.018 31.4187C156.028 31.3996 156.042 31.3754 156.062 31.3454C156.166 31.1905 156.369 30.9805 156.683 30.7218C156.991 30.467 157.391 30.1791 157.87 29.8662C158.828 29.2408 160.092 28.5261 161.564 27.7899C164.506 26.3175 168.257 24.7691 172.013 23.683C175.778 22.5945 179.511 21.9812 182.433 22.3474C183.312 22.4576 183.918 22.6225 184.309 22.8177C184.698 23.0117 184.826 23.2091 184.857 23.3725C184.891 23.5515 184.833 23.8065 184.599 24.1573C184.37 24.5022 184.002 24.8915 183.515 25.3168ZM155.996 31.4699C155.995 31.4762 155.995 31.4789 155.995 31.4786C155.995 31.4785 155.995 31.478 155.996 31.4772C155.996 31.4757 155.996 31.4733 155.996 31.4699Z" fill="#F0E4D1"/>
</svg>
