<svg width="229" height="107" viewBox="0 0 229 107" fill="none" xmlns="http://www.w3.org/2000/svg">
<path id="Subtract" fill-rule="evenodd" clip-rule="evenodd" d="M0 10C0 4.47715 4.47715 0 10 0H219C221.662 0 224.08 1.03986 225.872 2.73549L225.852 2.74244C224.499 3.20379 222.864 3.86928 221.077 4.63456C219.842 5.16334 218.534 5.73961 217.19 6.33166L217.188 6.33247L217.186 6.3334L217.185 6.33356L217.183 6.33451L217.183 6.33481L217.182 6.33494C214.624 7.46171 211.938 8.64537 209.379 9.66724C208.126 10.1676 207.242 10.7771 206.691 11.4973C206.133 12.2282 205.941 13.0423 206.021 13.8914C206.1 14.7276 206.441 15.5885 206.928 16.4446C207.416 17.3031 208.063 18.1798 208.78 19.0509C209.627 20.0801 210.604 21.1373 211.546 22.1566L211.546 22.157C212.179 22.8416 212.796 23.5091 213.347 24.1395C214.045 24.938 214.648 25.688 215.088 26.3744C215.533 27.068 215.783 27.6556 215.823 28.1346C215.834 28.2625 215.806 28.3425 215.761 28.4037C215.711 28.4727 215.616 28.5511 215.445 28.6233C215.091 28.772 214.529 28.8467 213.785 28.8468C212.31 28.847 210.325 28.5585 208.377 28.2421C208.021 28.1842 207.665 28.1252 207.314 28.067L207.311 28.0665C205.769 27.8111 204.323 27.5714 203.313 27.5019C203 27.4804 202.716 27.474 202.475 27.4909C202.248 27.5069 202.008 27.5463 201.819 27.6533C201.719 27.7106 201.613 27.7988 201.545 27.932C201.474 28.0699 201.465 28.2157 201.491 28.3474C201.538 28.5821 201.701 28.7956 201.878 28.9802C202.571 29.701 203.61 30.1303 204.739 30.3835C205.876 30.6386 207.155 30.7261 208.38 30.7248C209.893 30.7233 211.348 30.5862 212.396 30.4483C212.254 30.5509 212.1 30.6611 211.935 30.7784C210.896 31.5163 209.437 32.5128 207.819 33.6177L207.816 33.6201L207.816 33.6203L207.075 34.1266C203.27 36.7267 198.816 39.792 196.998 41.4258C196.596 41.787 196.409 41.7428 196.337 41.7075C196.236 41.6588 196.108 41.5208 195.981 41.2424C196.364 40.4287 196.819 39.2608 197.139 37.9401C197.599 36.0357 197.792 33.7511 197.014 31.7386C196.917 31.4857 196.798 31.2586 196.64 31.1081C196.62 31.0892 196.598 31.0706 196.575 31.0529C196.954 31.1436 197.303 31.2211 197.609 31.2798C197.87 31.3299 198.107 31.3675 198.31 31.3876C198.506 31.4068 198.7 31.413 198.862 31.384C199.095 31.3421 199.288 31.1871 199.434 31.0391C199.589 30.8804 199.746 30.6712 199.902 30.4299C200.215 29.9459 200.556 29.282 200.91 28.5028C201.619 26.9408 202.397 24.8657 203.108 22.7176C203.819 20.5685 204.466 18.3359 204.91 16.4567C205.132 15.5174 205.304 14.6612 205.408 13.945C205.511 13.2405 205.553 12.6335 205.493 12.212C205.469 12.0448 205.398 11.8812 205.259 11.7555C205.124 11.6338 204.961 11.5796 204.81 11.5598C204.523 11.5224 204.182 11.5965 203.838 11.7126C203.13 11.9507 202.175 12.4479 201.078 13.1094C198.873 14.4388 195.995 16.4927 193.174 18.6812C190.352 20.8705 187.573 23.2045 185.568 25.0986C184.567 26.0438 183.747 26.8895 183.211 27.5583C182.945 27.8902 182.733 28.1967 182.607 28.4619C182.544 28.5941 182.492 28.7361 182.475 28.879C182.457 29.0237 182.47 29.203 182.58 29.3641C182.689 29.5228 182.841 29.7384 183.027 30.002L183.028 30.0024C183.83 31.1377 185.261 33.1628 186.538 35.3718C187.325 36.7318 188.045 38.1467 188.519 39.4504C188.998 40.7678 189.203 41.9111 189.031 42.7553C188.979 43.0136 188.813 43.3141 188.503 43.6525C188.195 43.9884 187.766 44.3387 187.229 44.697C186.155 45.4138 184.694 46.1325 183.032 46.8146C179.711 48.1776 175.646 49.3697 172.41 50.0996C172.188 50.1497 172.048 50.3702 172.098 50.5923C172.148 50.8143 172.369 50.9537 172.591 50.9036C175.861 50.166 179.972 48.9615 183.345 47.5771C185.03 46.8855 186.547 46.1428 187.686 45.3826C188.256 45.0026 188.743 44.6106 189.11 44.2094C189.476 43.8107 189.745 43.3792 189.839 42.9198C190.058 41.8453 189.786 40.5227 189.293 39.1688C188.796 37.8011 188.05 36.3394 187.252 34.9592C185.952 32.7114 184.488 30.6408 183.691 29.5125L183.688 29.5084C183.529 29.2839 183.397 29.0968 183.298 28.9534C183.305 28.9247 183.321 28.8797 183.351 28.8161C183.436 28.6368 183.601 28.3886 183.854 28.074C184.355 27.4497 185.141 26.6348 186.133 25.6978C188.114 23.8276 190.871 21.5112 193.679 19.3324C196.489 17.1528 199.338 15.1209 201.504 13.8152C202.592 13.1592 203.483 12.7016 204.101 12.4937C204.397 12.3939 204.584 12.3683 204.683 12.3751C204.716 12.6763 204.689 13.1661 204.593 13.8264C204.493 14.5104 204.326 15.3414 204.107 16.2671C203.67 18.118 203.031 20.327 202.325 22.4587C201.62 24.5915 200.852 26.6366 200.159 28.1622C199.813 28.9267 199.49 29.5484 199.21 29.9826C199.069 30.2005 198.947 30.3587 198.845 30.4619C198.755 30.5534 198.711 30.5724 198.709 30.5739C198.66 30.5815 198.559 30.5838 198.391 30.5673C198.223 30.5507 198.013 30.518 197.764 30.4703C197.267 30.375 196.641 30.2251 195.93 30.0438C195.442 29.9195 194.914 29.7805 194.364 29.6356L194.362 29.6351L194.362 29.635L194.361 29.6347C193.318 29.3602 192.196 29.0646 191.116 28.8087C189.471 28.4187 187.867 28.1059 186.731 28.0985C186.179 28.0949 185.646 28.1606 185.282 28.404C185.085 28.5361 184.931 28.7249 184.866 28.9738C184.803 29.2137 184.834 29.4653 184.917 29.7107C185.203 30.5529 185.933 31.833 186.849 33.2316C187.773 34.6421 188.909 36.2093 190.036 37.6374C191.16 39.0633 192.283 40.362 193.18 41.23C193.623 41.6598 194.033 42.0052 194.373 42.2025C194.538 42.2985 194.727 42.3842 194.919 42.4002C195.021 42.4087 195.139 42.3988 195.255 42.3466C195.374 42.2927 195.467 42.2052 195.53 42.1008L195.537 42.0899C195.661 42.2416 195.806 42.3661 195.977 42.4491C196.504 42.7048 197.055 42.4829 197.549 42.0388C199.315 40.4515 203.709 37.4254 207.54 34.8071L208.28 34.3013C209.898 33.1961 211.365 32.1936 212.412 31.4505C213.012 31.0246 213.485 30.676 213.77 30.4395C213.897 30.3339 214.034 30.2133 214.108 30.104C214.127 30.0753 214.167 30.0121 214.185 29.9261C214.198 29.8606 214.201 29.7623 214.16 29.6647C214.78 29.6429 215.337 29.5625 215.764 29.3831C216.025 29.2736 216.263 29.1162 216.429 28.887C216.6 28.6499 216.67 28.3691 216.645 28.065C216.587 27.3849 216.251 26.6602 215.782 25.9296C215.309 25.1917 214.674 24.4055 213.967 23.5971C213.382 22.9272 212.754 22.2486 212.12 21.5627L212.117 21.5602L212.117 21.5594C211.195 20.5624 210.258 19.5501 209.416 18.5271C208.714 17.6738 208.099 16.8381 207.644 16.0375C207.188 15.2342 206.906 14.4891 206.842 13.8138C206.779 13.1514 206.925 12.5484 207.346 11.9979C207.775 11.4368 208.513 10.9008 209.685 10.4326C212.255 9.40595 214.969 8.21064 217.536 7.07992C218.878 6.48858 220.18 5.9149 221.401 5.39224C223.185 4.62849 224.796 3.9733 226.118 3.52254C226.251 3.47723 226.38 3.43408 226.507 3.39318C228.059 5.15504 229 7.46759 229 10V97C229 102.523 224.523 107 219 107H97.2712C99.0124 105.763 100.974 104.417 102.807 103.164L103.548 102.658C105.165 101.553 106.633 100.55 107.68 99.807C108.28 99.3812 108.753 99.0326 109.038 98.7961C109.165 98.6905 109.302 98.5699 109.375 98.4606C109.395 98.4319 109.434 98.3687 109.452 98.2827C109.466 98.2172 109.469 98.1188 109.427 98.0213C110.047 97.9995 110.605 97.9191 111.032 97.7397C111.292 97.6302 111.53 97.4728 111.696 97.2436C111.868 97.0065 111.938 96.7257 111.912 96.4216C111.855 95.7415 111.518 95.0168 111.05 94.2862C110.577 93.5482 109.941 92.7621 109.235 91.9537C108.648 91.2828 108.02 90.603 107.384 89.916C106.462 88.919 105.526 87.9067 104.684 86.8837C103.981 86.0304 103.367 85.1947 102.912 84.394C102.456 83.5908 102.173 82.8457 102.109 82.1704C102.047 81.5079 102.193 80.905 102.614 80.3545C103.043 79.7934 103.78 79.2574 104.952 78.7892C107.523 77.7626 110.236 76.5675 112.803 75.4368L112.803 75.4365C114.146 74.8452 115.448 74.2715 116.669 73.7488C118.453 72.9851 120.063 72.3299 121.385 71.8791C122.046 71.6538 122.628 71.4819 123.119 71.3731C123.616 71.2629 123.994 71.2233 124.257 71.2446C124.484 71.263 124.683 71.0941 124.701 70.8672C124.72 70.6404 124.551 70.4415 124.324 70.4231C123.939 70.3919 123.467 70.4518 122.941 70.5684C122.409 70.6863 121.796 70.8683 121.119 71.099C119.766 71.5604 118.132 72.2259 116.345 72.9911C115.107 73.5209 113.797 74.0983 112.45 74.6914L112.449 74.6917C109.892 75.8185 107.205 77.002 104.647 78.0238C103.394 78.5242 102.51 79.1337 101.959 79.8539C101.4 80.5847 101.209 81.3989 101.289 82.248C101.368 83.0842 101.709 83.9451 102.195 84.8012C102.683 85.6597 103.33 86.5364 104.047 87.4075C104.895 88.4367 105.871 89.4939 106.813 90.5132L106.814 90.5139C107.446 91.1984 108.063 91.8658 108.614 92.4961C109.312 93.2946 109.916 94.0446 110.356 94.7309C110.8 95.4246 111.05 96.0122 111.091 96.4912C111.102 96.619 111.073 96.6991 111.029 96.7603C110.979 96.8293 110.884 96.9077 110.712 96.9799C110.359 97.1285 109.797 97.2033 109.052 97.2034C107.578 97.2036 105.593 96.9151 103.645 96.5987C103.287 96.5406 102.93 96.4814 102.578 96.4231C101.037 96.1677 99.5902 95.928 98.5803 95.8585C98.2673 95.8369 97.9831 95.8306 97.743 95.8475C97.5158 95.8634 97.2751 95.9029 97.087 96.0098C96.9863 96.0672 96.8804 96.1553 96.8123 96.2886C96.7419 96.4265 96.7327 96.5723 96.7588 96.704C96.8054 96.9387 96.9682 97.1522 97.1457 97.3368C97.8382 98.0575 98.8774 98.4869 100.006 98.7401C101.143 98.9952 102.422 99.0827 103.648 99.0814C105.16 99.0799 106.616 98.9428 107.663 98.8049C107.522 98.9075 107.368 99.0177 107.203 99.135C106.163 99.8732 104.703 100.87 103.084 101.976L103.083 101.977L102.342 102.483C100.19 103.954 97.8291 105.575 95.8557 107H92.2201C92.2858 106.771 92.3483 106.537 92.4063 106.297C92.867 104.392 93.0599 102.108 92.2819 100.095C92.1842 99.8423 92.0657 99.6152 91.9071 99.4647C91.8872 99.4458 91.8657 99.4272 91.8425 99.4095C92.2221 99.5002 92.5704 99.5777 92.8765 99.6364C93.1379 99.6865 93.3748 99.7241 93.578 99.7441C93.7736 99.7634 93.9676 99.7696 94.1294 99.7406C94.3631 99.6987 94.5559 99.5437 94.7012 99.3957C94.8569 99.237 95.0136 99.0278 95.1695 98.7865C95.4823 98.3025 95.824 97.6386 96.1776 96.8593C96.8863 95.2974 97.6646 93.2223 98.3753 91.0742C99.0864 88.925 99.7332 86.6925 100.177 84.8132C100.399 83.874 100.572 83.0178 100.676 82.3016C100.778 81.5971 100.821 80.9901 100.761 80.5686C100.737 80.4014 100.665 80.2378 100.526 80.1121C100.391 79.9904 100.229 79.9362 100.077 79.9164C99.7907 79.879 99.45 79.9531 99.1053 80.0691C98.3978 80.3073 97.4429 80.8045 96.3457 81.466C94.1408 82.7954 91.263 84.8493 88.4418 87.0378C85.6195 89.2271 82.841 91.5611 80.8352 93.4552C79.8342 94.4004 79.0149 95.2461 78.4784 95.9149C78.2122 96.2468 78.0007 96.5533 77.8745 96.8185C77.8115 96.9507 77.7599 97.0927 77.7422 97.2356C77.7242 97.3803 77.7375 97.5596 77.8478 97.7206C77.9564 97.8794 78.1087 98.095 78.295 98.3586C79.097 99.4938 80.528 101.519 81.8059 103.728C82.4326 104.812 83.0169 105.931 83.4683 107H10C4.47716 107 0 102.523 0 97V10ZM84.3597 107H86.114C85.8459 106.675 85.5746 106.338 85.3032 105.994C84.177 104.566 83.0403 102.999 82.1166 101.588C81.2007 100.19 80.4703 98.9095 80.1846 98.0673C80.1013 97.8219 80.0703 97.5703 80.1331 97.3304C80.1984 97.0815 80.3522 96.8927 80.5497 96.7606C80.9136 96.5172 81.4463 96.4515 81.9984 96.4551C83.1344 96.4625 84.7385 96.7753 86.3839 97.1653C87.4641 97.4213 88.5868 97.717 89.6297 97.9917C90.1805 98.1368 90.709 98.276 91.1972 98.4004C91.9087 98.5817 92.5347 98.7316 93.0318 98.8269C93.2804 98.8746 93.4903 98.9073 93.6587 98.9239C93.8265 98.9404 93.9273 98.9381 93.977 98.9305C93.9782 98.9289 94.023 98.91 94.1129 98.8185C94.2141 98.7153 94.3364 98.5571 94.4772 98.3392C94.7578 97.9049 95.0802 97.2833 95.427 96.5188C96.1192 94.9932 96.8872 92.9481 97.5928 90.8153C98.2981 88.6835 98.9378 86.4746 99.3751 84.6237C99.5938 83.698 99.7607 82.867 99.8602 82.183C99.9562 81.5227 99.984 81.0329 99.9506 80.7317C99.8515 80.7249 99.6647 80.7505 99.3682 80.8503C98.7504 81.0582 97.8593 81.5158 96.7713 82.1718C94.6059 83.4774 91.7568 85.5093 88.9469 87.689C86.1382 89.8678 83.3816 92.1842 81.4011 94.0544C80.4089 94.9913 79.6221 95.8063 79.1213 96.4306C78.8689 96.7452 78.704 96.9933 78.6186 97.1727C78.5883 97.2363 78.573 97.2813 78.5656 97.31C78.6653 97.4543 78.7985 97.6427 78.9585 97.8691L78.9585 97.8692C79.7559 98.9975 81.2192 101.068 82.5193 103.316C83.2162 104.521 83.8731 105.788 84.3597 107ZM89.9353 107H87.1882C86.7859 106.526 86.3694 106.015 85.9504 105.484C84.8372 104.072 83.715 102.524 82.8061 101.137C81.8895 99.7368 81.2136 98.5348 80.965 97.8024C80.9147 97.6542 80.9212 97.5746 80.9304 97.5394C80.9373 97.5132 80.9522 97.483 81.008 97.4457C81.1505 97.3503 81.4618 97.2758 81.9931 97.2793C83.0239 97.286 84.5439 97.5762 86.1938 97.9673C87.2652 98.2212 88.3671 98.5115 89.4028 98.7843L89.4035 98.7845C89.9575 98.9304 90.4924 99.0713 90.9937 99.199C91.1074 99.228 91.2194 99.2563 91.3294 99.2838C91.2709 99.2961 91.2157 99.3168 91.1649 99.3434C90.9599 99.4512 90.8269 99.6563 90.738 99.8296C90.6404 100.02 90.5548 100.256 90.4789 100.518C90.1768 101.562 89.9652 103.252 89.913 104.937C89.8915 105.629 89.8965 106.332 89.9353 107ZM91.3607 107H90.761C90.7219 106.356 90.7151 105.662 90.7368 104.962C90.788 103.309 90.9957 101.696 91.2706 100.747C91.3318 100.535 91.3931 100.368 91.4513 100.246C91.4703 100.287 91.491 100.335 91.5132 100.392C92.2036 102.178 92.0487 104.269 91.6053 106.103C91.5305 106.412 91.448 106.712 91.3607 107ZM193.184 26.7859C192.934 26.9764 192.691 27.0978 192.454 27.15C192.22 27.2053 192.003 27.1985 191.802 27.1296C191.604 27.0582 191.436 26.9321 191.298 26.7511C191.165 26.5764 191.068 26.3563 191.009 26.0906C190.947 25.8219 190.933 25.512 190.966 25.1608C190.99 24.9008 191.039 24.6386 191.113 24.3742C191.186 24.1067 191.271 23.8493 191.368 23.602C191.469 23.3523 191.578 23.1233 191.696 22.9151C191.816 22.7045 191.937 22.5261 192.057 22.3799C192.124 22.2992 192.195 22.2233 192.269 22.152C192.343 22.0752 192.42 22.0071 192.498 21.9476C192.632 21.8452 192.768 21.7683 192.907 21.7169C193.045 21.6655 193.177 21.651 193.303 21.6735C193.429 21.696 193.538 21.7681 193.631 21.8898C193.684 21.9584 193.722 22.035 193.747 22.1196C193.775 22.2017 193.795 22.266 193.805 22.3122C193.81 22.338 193.808 22.3545 193.799 22.3617C193.796 22.3642 193.792 22.365 193.787 22.3644C193.786 22.3641 193.784 22.3637 193.783 22.363C193.781 22.3623 193.779 22.3614 193.777 22.3602L193.774 22.3584C193.761 22.3483 193.753 22.3346 193.75 22.3174C193.731 22.2335 193.703 22.1682 193.667 22.1214C193.608 22.0434 193.531 22.0135 193.436 22.0315C193.342 22.0441 193.237 22.0944 193.121 22.1825C192.99 22.2825 192.851 22.4207 192.705 22.597C192.558 22.7733 192.412 22.9735 192.267 23.1976C192.125 23.4194 191.992 23.6521 191.867 23.8957C191.741 24.1393 191.634 24.3839 191.545 24.6296C191.457 24.8698 191.395 25.0952 191.358 25.3059C191.297 25.6533 191.283 25.9482 191.315 26.1905C191.347 26.4273 191.414 26.6112 191.514 26.7423C191.664 26.9388 191.874 27.023 192.143 26.9948C192.413 26.9666 192.702 26.8347 193.011 26.599C193.092 26.537 193.173 26.4681 193.253 26.392C193.334 26.316 193.415 26.2345 193.496 26.1474C193.687 25.9378 193.866 25.7071 194.034 25.4553C194.203 25.1979 194.349 24.9334 194.473 24.6615C194.541 24.5085 194.601 24.3569 194.652 24.2067C194.65 24.1957 194.648 24.1846 194.646 24.1735C194.622 24.0049 194.63 23.8353 194.673 23.6646C194.71 23.5045 194.768 23.3555 194.847 23.2177C194.848 23.169 194.848 23.1209 194.846 23.0735C194.846 23.0091 194.849 22.9746 194.855 22.9698C194.859 22.9674 194.864 22.9709 194.871 22.9803L194.889 23.0037C194.893 23.0099 194.899 23.0232 194.904 23.0436C194.91 23.0623 194.916 23.082 194.921 23.1027C195.002 22.9881 195.095 22.8909 195.199 22.8112C195.327 22.7136 195.44 22.6643 195.538 22.6635C195.634 22.6596 195.707 22.6903 195.757 22.7559C195.804 22.8183 195.826 22.908 195.821 23.025C195.818 23.1365 195.781 23.2604 195.713 23.3968C195.668 23.4804 195.61 23.5692 195.538 23.6632C195.468 23.7517 195.399 23.8209 195.334 23.871C195.284 23.909 195.253 23.9203 195.241 23.9047C195.232 23.8922 195.249 23.8693 195.292 23.836C195.333 23.805 195.387 23.7465 195.455 23.6603C195.523 23.5687 195.582 23.4717 195.632 23.3692C195.685 23.2502 195.711 23.1515 195.71 23.073C195.709 22.9945 195.693 22.935 195.662 22.8944C195.634 22.857 195.594 22.8377 195.544 22.8365C195.497 22.833 195.447 22.8515 195.394 22.892C195.344 22.9301 195.299 22.987 195.258 23.0627C195.198 23.1723 195.156 23.3108 195.13 23.4782C195.106 23.6401 195.104 23.7995 195.125 23.9563C195.146 24.1131 195.195 24.2415 195.271 24.3413C195.323 24.4099 195.386 24.4534 195.459 24.4716C195.535 24.4874 195.613 24.4656 195.691 24.4061C195.772 24.3441 195.846 24.2478 195.914 24.1169C195.98 23.9829 196.039 23.8368 196.091 23.6785C196.14 23.5172 196.182 23.3618 196.216 23.2124C196.25 23.063 196.275 22.9403 196.291 22.8444C196.293 22.8304 196.295 22.8187 196.298 22.8093C196.3 22.8022 196.302 22.7964 196.305 22.792C196.323 22.6862 196.336 22.5887 196.345 22.4995C196.359 22.3306 196.384 22.1785 196.419 22.0432C196.437 21.97 196.465 21.9066 196.503 21.8529C196.539 21.7961 196.578 21.751 196.622 21.7177C196.697 21.6605 196.776 21.6347 196.859 21.6403C196.943 21.6459 197.014 21.6877 197.073 21.7657C197.119 21.825 197.151 21.8993 197.17 21.9886C197.195 22.0928 197.207 22.2065 197.208 22.3297C197.209 22.4475 197.21 22.5625 197.212 22.6747C197.216 22.7649 197.224 22.8359 197.234 22.8876C197.243 22.9394 197.256 22.9746 197.27 22.9933C197.289 23.0183 197.311 23.0212 197.336 23.0022C197.361 22.9831 197.386 22.9417 197.411 22.8779C197.437 22.8141 197.458 22.7413 197.474 22.6596C197.485 22.6022 197.493 22.5515 197.499 22.5075L197.513 22.4002C197.528 22.2705 197.539 22.1362 197.546 21.9972C197.551 21.8551 197.553 21.7279 197.551 21.6157C197.552 21.5317 197.552 21.4673 197.552 21.4226C197.556 21.3754 197.56 21.3255 197.564 21.2729C197.572 21.1732 197.604 21.0991 197.661 21.0507C197.695 21.0245 197.74 21.0026 197.796 20.9848C197.852 20.9616 197.918 20.9536 197.992 20.9608C197.994 21.0283 197.994 21.1249 197.991 21.2505C197.989 21.3706 197.988 21.5048 197.987 21.6532C197.988 21.7961 197.992 21.9409 198 22.0876C198.012 22.2319 198.029 22.3617 198.053 22.4769C198.077 22.5921 198.113 22.6809 198.16 22.7433C198.194 22.7869 198.232 22.8117 198.276 22.8177C198.298 22.8206 198.303 22.8268 198.291 22.8364C198.28 22.849 198.271 22.8562 198.262 22.8578C198.21 22.8732 198.148 22.876 198.077 22.8664C198.008 22.8544 197.936 22.7985 197.86 22.6987C197.795 22.6145 197.743 22.5164 197.702 22.4045C197.658 22.2895 197.624 22.17 197.599 22.0462C197.596 22.2111 197.585 22.3803 197.564 22.554C197.547 22.7253 197.515 22.8806 197.468 23.0199C197.422 23.1537 197.358 23.2516 197.277 23.3135C197.209 23.3659 197.137 23.3912 197.061 23.3895C196.989 23.3854 196.923 23.3444 196.864 23.2664C196.821 23.2102 196.785 23.141 196.757 23.0589C196.729 22.9767 196.712 22.8736 196.706 22.7496C196.7 22.6256 196.701 22.4996 196.706 22.3716C196.713 22.2381 196.72 22.1243 196.727 22.03C196.731 21.9632 196.723 21.9174 196.704 21.8924C196.68 21.8612 196.651 21.8587 196.616 21.8849C196.579 21.9135 196.545 21.9789 196.514 22.0812C196.483 22.189 196.457 22.3129 196.435 22.4528C196.411 22.5896 196.391 22.7213 196.374 22.8478C196.354 22.9712 196.335 23.0722 196.316 23.1509L196.315 23.1574C196.315 23.1601 196.314 23.1626 196.313 23.165C196.311 23.1699 196.309 23.1742 196.307 23.1778C196.305 23.181 196.302 23.1836 196.299 23.1859C196.278 23.2915 196.255 23.4004 196.231 23.5125C196.184 23.7359 196.113 23.9504 196.018 24.156C195.924 24.3562 195.792 24.5233 195.623 24.6574C195.486 24.7622 195.345 24.8175 195.202 24.8235C195.059 24.8239 194.939 24.7601 194.841 24.6322C194.792 24.5681 194.752 24.5006 194.72 24.4297C194.67 24.5754 194.613 24.7246 194.549 24.8775C194.442 25.132 194.317 25.3826 194.175 25.6295C194.03 25.8733 193.87 26.0968 193.694 26.3C193.532 26.4882 193.362 26.6502 193.184 26.7859ZM191.722 25.4724C191.688 25.4986 191.655 25.5137 191.623 25.5179C191.606 25.5212 191.585 25.5198 191.561 25.5138C191.534 25.5046 191.511 25.4875 191.492 25.4625C191.464 25.4251 191.459 25.3643 191.479 25.2801C191.502 25.1936 191.586 25.0704 191.73 24.9106C191.779 24.8584 191.836 24.803 191.9 24.7444C191.963 24.6857 192.033 24.6279 192.108 24.5707C192.239 24.4707 192.378 24.3789 192.527 24.2952C192.676 24.206 192.82 24.1385 192.957 24.0926C193.098 24.0443 193.218 24.0296 193.316 24.0484C193.351 24.0559 193.378 24.0706 193.394 24.0924C193.413 24.1174 193.41 24.1394 193.385 24.1585C193.367 24.1727 193.339 24.1816 193.302 24.1851C193.22 24.1881 193.126 24.216 193.018 24.2687C192.913 24.319 192.801 24.3894 192.683 24.4799C192.474 24.6395 192.265 24.841 192.055 25.0845C191.989 25.1597 191.93 25.2343 191.878 25.3086C191.824 25.3797 191.772 25.4343 191.722 25.4724ZM198.866 22.1451C198.835 22.1689 198.792 22.1897 198.736 22.2074C198.683 22.2283 198.62 22.2367 198.548 22.2326C198.547 22.1596 198.549 22.0591 198.555 21.9311C198.555 21.8023 198.555 21.6622 198.553 21.5107C198.55 21.3593 198.544 21.2114 198.532 21.067C198.52 21.155 198.506 21.2497 198.49 21.3511C198.474 21.4525 198.454 21.5493 198.43 21.6413C198.425 21.6602 198.416 21.6744 198.403 21.6839C198.391 21.6934 198.38 21.692 198.37 21.6795C198.356 21.6608 198.353 21.6282 198.362 21.5818C198.39 21.4371 198.419 21.2772 198.448 21.1019C198.48 20.9242 198.481 20.7633 198.45 20.6191C198.437 20.5697 198.418 20.5295 198.394 20.4983C198.363 20.4577 198.337 20.4387 198.314 20.4413C198.294 20.4414 198.279 20.4337 198.267 20.4181C198.245 20.39 198.249 20.3653 198.277 20.3438C198.292 20.3319 198.307 20.3255 198.321 20.3246C198.367 20.314 198.423 20.3187 198.487 20.3385C198.552 20.3584 198.619 20.4136 198.688 20.5041C198.752 20.5883 198.806 20.695 198.851 20.8241C198.844 20.7449 198.841 20.6688 198.839 20.5958C198.835 20.5197 198.834 20.4494 198.834 20.3851C198.834 20.2563 198.853 20.1455 198.891 20.0525C198.93 19.9541 198.975 19.8846 199.028 19.8442C199.116 19.7775 199.197 19.7941 199.274 19.8939C199.317 19.9501 199.354 20.0377 199.385 20.1567C199.411 20.2609 199.435 20.3902 199.459 20.5447C199.458 20.4324 199.458 20.3233 199.461 20.2173C199.467 20.1089 199.474 20.0174 199.481 19.9428C199.503 19.7833 199.539 19.6523 199.589 19.5498C199.642 19.4449 199.703 19.3663 199.772 19.3139C199.853 19.252 199.934 19.2266 200.017 19.2377C200.1 19.2433 200.172 19.2851 200.231 19.3631C200.274 19.4192 200.306 19.4908 200.328 19.5777C200.338 19.6294 200.345 19.7032 200.349 19.7989C200.353 19.8946 200.356 19.9959 200.359 20.1026C200.361 20.2094 200.367 20.3039 200.375 20.3862C200.384 20.4686 200.398 20.5223 200.417 20.5472C200.44 20.5784 200.469 20.5809 200.504 20.5547C200.557 20.5142 200.6 20.4444 200.633 20.3452C200.671 20.2272 200.707 20.0934 200.741 19.944C200.775 19.7945 200.803 19.6722 200.824 19.5771C200.827 19.5551 200.833 19.5405 200.843 19.5334C200.855 19.5238 200.867 19.5269 200.879 19.5425C200.893 19.5612 200.899 19.5843 200.895 19.6118C200.882 19.6912 200.862 19.7922 200.837 19.9149C200.816 20.0352 200.788 20.1602 200.754 20.29C200.719 20.4199 200.679 20.5391 200.634 20.6478C200.586 20.7534 200.531 20.83 200.469 20.8776C200.388 20.9396 200.306 20.972 200.225 20.9751C200.146 20.9757 200.076 20.9355 200.014 20.8544C199.974 20.8013 199.939 20.7337 199.911 20.6515C199.883 20.5694 199.868 20.4596 199.867 20.3222C199.864 20.1817 199.867 20.0408 199.878 19.8994C199.886 19.7549 199.894 19.6355 199.901 19.5413C199.905 19.469 199.898 19.422 199.882 19.4001C199.86 19.3721 199.831 19.3723 199.793 19.4009C199.75 19.4342 199.702 19.5076 199.65 19.6211C199.602 19.7322 199.569 19.8761 199.551 20.0529C199.538 20.166 199.537 20.2975 199.548 20.4474C199.562 20.5948 199.583 20.7391 199.612 20.8801C199.638 21.0181 199.667 21.1368 199.698 21.2362C199.719 21.309 199.7 21.368 199.641 21.4133C199.61 21.4371 199.573 21.4504 199.53 21.4531C199.491 21.4534 199.47 21.4379 199.465 21.4065C199.439 21.2097 199.411 21.0157 199.384 20.8244C199.36 20.6307 199.323 20.4367 199.273 20.2424C199.243 20.1124 199.209 20.0224 199.171 19.9725C199.137 19.9288 199.102 19.9213 199.065 19.9498C199.027 19.9784 198.993 20.0411 198.964 20.1379C198.935 20.2292 198.918 20.3208 198.914 20.4127C198.906 20.5572 198.909 20.7102 198.924 20.8718C198.936 21.0303 198.951 21.1722 198.968 21.2977C198.977 21.3941 198.984 21.4902 198.988 21.586C198.992 21.6817 198.988 21.7779 198.978 21.8745C198.969 22.0049 198.932 22.0951 198.866 22.1451ZM196.338 37.7463C196.139 38.5682 195.885 39.3258 195.634 39.9642C195.48 39.0178 195.432 37.8202 195.469 36.6059C195.52 34.9525 195.728 33.3399 196.003 32.3904C196.064 32.1788 196.126 32.0119 196.184 31.8897C196.203 31.9302 196.223 31.9784 196.246 32.0357C196.936 33.8219 196.781 35.9127 196.338 37.7463ZM194.899 41.5481C194.954 41.4501 195.016 41.335 195.082 41.2045C195.075 41.1846 195.069 41.1646 195.062 41.1447C194.697 40.0057 194.593 38.2593 194.645 36.5804C194.698 34.895 194.909 33.2049 195.211 32.1613C195.287 31.899 195.373 31.663 195.47 31.473C195.559 31.2997 195.692 31.0946 195.897 30.9868C195.948 30.9602 196.003 30.9395 196.062 30.9272C195.952 30.8997 195.84 30.8714 195.726 30.8425C195.226 30.7149 194.692 30.5742 194.139 30.4286L194.136 30.428L194.136 30.4279L194.136 30.4279C193.1 30.155 191.998 29.8647 190.926 29.6107C189.276 29.2196 187.756 28.9294 186.725 28.9227C186.194 28.9192 185.883 28.9937 185.74 29.0891C185.685 29.1264 185.67 29.1566 185.663 29.1828C185.654 29.218 185.647 29.2976 185.697 29.4459C185.946 30.1782 186.622 31.3802 187.539 32.78C188.447 34.1679 189.57 35.7154 190.683 37.127C191.798 38.541 192.895 39.807 193.753 40.6378C194.186 41.0574 194.537 41.3449 194.787 41.49C194.83 41.5151 194.867 41.5341 194.899 41.5481ZM208.245 29.0556C209.662 29.2857 211.138 29.5083 212.436 29.6114C211.416 29.7508 209.928 29.899 208.379 29.9006C207.187 29.9019 205.974 29.8161 204.919 29.5793C203.856 29.3407 203.001 28.9598 202.472 28.4092C202.443 28.3785 202.418 28.3511 202.398 28.327C202.436 28.3216 202.48 28.3168 202.533 28.3131C202.719 28.3 202.961 28.3039 203.256 28.3241C204.223 28.3907 205.616 28.6214 207.155 28.8763C207.512 28.9353 207.876 28.9957 208.245 29.0556ZM140.817 60.9648C140.568 61.1553 140.325 61.2766 140.088 61.3288C139.854 61.3842 139.636 61.3774 139.436 61.3084C139.238 61.2371 139.07 61.1109 138.932 60.93C138.799 60.7553 138.702 60.5351 138.643 60.2695C138.581 60.0008 138.566 59.6908 138.6 59.3397C138.623 59.0796 138.673 58.8174 138.747 58.5531C138.82 58.2855 138.905 58.0281 139.002 57.7808C139.103 57.5312 139.212 57.3022 139.33 57.094C139.45 56.8834 139.571 56.705 139.691 56.5587C139.758 56.4781 139.828 56.4021 139.902 56.3309C139.977 56.2541 140.054 56.186 140.132 56.1264C140.266 56.024 140.402 55.9471 140.541 55.8957C140.679 55.8443 140.811 55.8299 140.937 55.8524C141.063 55.8749 141.172 55.9469 141.265 56.0686C141.317 56.1373 141.356 56.2139 141.381 56.2984C141.409 56.3806 141.429 56.4448 141.439 56.491C141.444 56.5169 141.442 56.5334 141.433 56.5405C141.431 56.5415 141.43 56.5422 141.429 56.5427L141.426 56.5433L141.423 56.5434C141.419 56.5432 141.414 56.5412 141.408 56.5372C141.395 56.5271 141.387 56.5135 141.384 56.4962C141.364 56.4124 141.337 56.3471 141.301 56.3003C141.242 56.2223 141.164 56.1923 141.069 56.2104C140.975 56.2229 140.871 56.2733 140.755 56.3614C140.624 56.4614 140.485 56.5995 140.338 56.7758C140.191 56.9521 140.046 57.1523 139.901 57.3765C139.759 57.5983 139.625 57.8309 139.5 58.0746C139.375 58.3182 139.268 58.5628 139.179 58.8085C139.091 59.0486 139.028 59.274 138.992 59.4847C138.931 59.8322 138.917 60.1271 138.949 60.3694C138.981 60.6062 139.047 60.7901 139.147 60.9211C139.297 61.1177 139.507 61.2019 139.777 61.1737C140.047 61.1455 140.336 61.0135 140.645 60.7778C140.726 60.7159 140.807 60.6469 140.887 60.5709C140.967 60.4949 141.048 60.4133 141.13 60.3263C141.321 60.1167 141.5 59.886 141.668 59.6341C141.837 59.3768 141.983 59.1122 142.107 58.8404C142.175 58.6874 142.235 58.5357 142.286 58.3855L142.282 58.3626L142.28 58.3523C142.255 58.1838 142.264 58.0141 142.307 57.8434C142.344 57.6833 142.402 57.5344 142.481 57.3966C142.482 57.3478 142.481 57.2998 142.479 57.2524C142.48 57.188 142.483 57.1534 142.489 57.1487C142.492 57.1463 142.497 57.1498 142.505 57.1591L142.522 57.1825C142.525 57.1854 142.527 57.1899 142.529 57.196C142.532 57.2028 142.535 57.2116 142.538 57.2224C142.541 57.2314 142.544 57.2405 142.546 57.25C142.549 57.2602 142.552 57.2707 142.554 57.2816C142.636 57.167 142.728 57.0698 142.833 56.99C142.961 56.8924 143.074 56.8432 143.172 56.8424C143.268 56.8384 143.34 56.8692 143.39 56.9347C143.438 56.9971 143.46 57.0868 143.455 57.2038C143.451 57.3153 143.415 57.4393 143.346 57.5756C143.302 57.6592 143.243 57.748 143.172 57.842C143.101 57.9305 143.033 57.9998 142.968 58.0498C142.918 58.0879 142.887 58.0992 142.875 58.0836C142.865 58.0711 142.883 58.0482 142.926 58.0148C142.967 57.9839 143.021 57.9253 143.088 57.8392C143.157 57.7476 143.216 57.6505 143.266 57.548C143.318 57.4291 143.344 57.3303 143.344 57.2519C143.343 57.1734 143.327 57.1138 143.296 57.0733C143.268 57.0358 143.228 57.0165 143.178 57.0154C143.131 57.0119 143.081 57.0303 143.028 57.0708C142.978 57.1089 142.932 57.1658 142.891 57.2415C142.832 57.3511 142.79 57.4897 142.764 57.6571C142.74 57.819 142.738 57.9783 142.759 58.1352C142.78 58.292 142.828 58.4203 142.905 58.5201C142.957 58.5888 143.02 58.6322 143.093 58.6504C143.169 58.6663 143.246 58.6444 143.324 58.5849C143.405 58.523 143.48 58.4266 143.548 58.2957C143.614 58.1617 143.672 58.0156 143.724 57.8574C143.774 57.6961 143.816 57.5407 143.85 57.3912C143.884 57.2418 143.909 57.1191 143.925 57.0233C143.928 56.9986 143.933 56.9811 143.939 56.9709C143.956 56.865 143.97 56.7675 143.979 56.6783C143.993 56.5095 144.018 56.3574 144.053 56.222C144.071 56.1489 144.099 56.0855 144.137 56.0318C144.173 55.9749 144.212 55.9299 144.256 55.8965C144.331 55.8394 144.41 55.8136 144.493 55.8192C144.576 55.8248 144.648 55.8666 144.707 55.9445C144.753 56.0038 144.785 56.0781 144.803 56.1675C144.829 56.2716 144.841 56.3854 144.842 56.5086C144.843 56.6263 144.844 56.7413 144.846 56.8536C144.85 56.9438 144.858 57.0148 144.867 57.0665C144.877 57.1182 144.889 57.1535 144.904 57.1722C144.923 57.1971 144.945 57.2001 144.97 57.181C144.995 57.162 145.02 57.1206 145.045 57.0568C145.07 56.993 145.091 56.9202 145.108 56.8384C145.119 56.781 145.127 56.7303 145.133 56.6863L145.147 56.579C145.162 56.4494 145.173 56.3151 145.18 56.1761C145.185 56.0339 145.187 55.9068 145.185 55.7945C145.185 55.7105 145.186 55.6462 145.186 55.6014C145.189 55.5543 145.193 55.5044 145.198 55.4518C145.205 55.352 145.238 55.278 145.295 55.2296C145.329 55.2034 145.374 55.1814 145.43 55.1637C145.486 55.1405 145.551 55.1325 145.626 55.1397C145.628 55.2072 145.628 55.3037 145.625 55.4293C145.623 55.5495 145.622 55.6837 145.621 55.8321C145.622 55.9749 145.626 56.1197 145.634 56.2664C145.646 56.4108 145.663 56.5405 145.687 56.6557C145.711 56.7709 145.746 56.8597 145.794 56.9221C145.827 56.9658 145.866 56.9906 145.91 56.9965C145.932 56.9995 145.937 57.0057 145.924 57.0152C145.914 57.0279 145.905 57.035 145.896 57.0367C145.844 57.052 145.782 57.0549 145.71 57.0453C145.642 57.0333 145.57 56.9774 145.493 56.8776C145.429 56.7933 145.376 56.6952 145.336 56.5833C145.292 56.4683 145.258 56.3489 145.232 56.2251C145.23 56.3899 145.218 56.5592 145.198 56.7329C145.18 56.9041 145.148 57.0594 145.102 57.1988C145.056 57.3326 144.992 57.4305 144.911 57.4924C144.842 57.5448 144.77 57.5701 144.695 57.5684C144.623 57.5643 144.557 57.5232 144.497 57.4452C144.454 57.3891 144.419 57.3199 144.391 57.2377C144.363 57.1555 144.346 57.0524 144.34 56.9285C144.334 56.8045 144.334 56.6785 144.34 56.5505C144.347 56.417 144.354 56.3031 144.361 56.2089C144.364 56.1421 144.356 56.0962 144.337 56.0713C144.314 56.0401 144.285 56.0376 144.25 56.0638C144.213 56.0924 144.179 56.1578 144.148 56.2601C144.117 56.3679 144.091 56.4918 144.069 56.6317C144.045 56.7685 144.025 56.9001 144.008 57.0266C143.988 57.15 143.969 57.2511 143.95 57.3297C143.948 57.3459 143.942 57.3575 143.933 57.3647C143.912 57.4704 143.889 57.5793 143.864 57.6914C143.818 57.9147 143.747 58.1292 143.652 58.3349C143.558 58.5351 143.426 58.7022 143.257 58.8363C143.12 58.9411 142.979 58.9964 142.836 59.0023C142.693 59.0027 142.573 58.939 142.475 58.8111C142.426 58.747 142.386 58.6795 142.354 58.6086C142.304 58.7542 142.247 58.9035 142.183 59.0564C142.076 59.3108 141.951 59.5615 141.809 59.8084C141.664 60.0522 141.504 60.2757 141.328 60.4789C141.165 60.6671 140.995 60.829 140.817 60.9648ZM139.356 59.6512C139.321 59.6774 139.289 59.6926 139.257 59.6968C139.251 59.698 139.244 59.6986 139.236 59.6985C139.224 59.6984 139.21 59.6964 139.195 59.6926C139.168 59.6834 139.145 59.6663 139.126 59.6414C139.098 59.6039 139.093 59.5431 139.113 59.459C139.136 59.3724 139.219 59.2493 139.364 59.0895C139.413 59.0373 139.469 58.9819 139.533 58.9232C139.597 58.8646 139.667 58.8067 139.741 58.7496C139.873 58.6496 140.012 58.5577 140.161 58.474C140.31 58.3849 140.453 58.3173 140.591 58.2714C140.732 58.2232 140.852 58.2084 140.95 58.2272C140.985 58.2348 141.011 58.2495 141.028 58.2713C141.047 58.2963 141.044 58.3183 141.019 58.3373C141 58.3516 140.973 58.3605 140.936 58.3639C140.854 58.367 140.759 58.3948 140.651 58.4475C140.547 58.4979 140.435 58.5683 140.316 58.6588C140.107 58.8183 139.898 59.0199 139.689 59.2634C139.623 59.3385 139.564 59.4132 139.512 59.4874C139.458 59.5585 139.406 59.6131 139.356 59.6512ZM146.5 56.324C146.469 56.3478 146.426 56.3686 146.37 56.3863C146.317 56.4072 146.254 56.4155 146.182 56.4114C146.18 56.3384 146.183 56.2379 146.189 56.1099C146.189 55.9812 146.188 55.8411 146.186 55.6896C146.184 55.5381 146.177 55.3902 146.166 55.2459C146.154 55.3339 146.14 55.4286 146.124 55.53C146.107 55.6314 146.087 55.7281 146.064 55.8202C146.058 55.839 146.05 55.8532 146.037 55.8628C146.025 55.8723 146.014 55.8708 146.004 55.8583C145.99 55.8396 145.987 55.8071 145.996 55.7607C146.024 55.616 146.052 55.456 146.082 55.2807C146.114 55.1031 146.114 54.9421 146.083 54.798C146.07 54.7486 146.052 54.7083 146.028 54.6771C145.997 54.6366 145.97 54.6176 145.948 54.6201C145.928 54.6203 145.912 54.6126 145.9 54.597C145.879 54.5689 145.882 54.5441 145.91 54.5227C145.926 54.5108 145.941 54.5044 145.955 54.5035C146.001 54.4929 146.057 54.4975 146.121 54.5174C146.186 54.5373 146.252 54.5924 146.321 54.6829C146.386 54.7671 146.44 54.8738 146.484 55.003C146.478 54.9238 146.474 54.8476 146.473 54.7747C146.469 54.6985 146.467 54.6283 146.468 54.5639C146.468 54.4352 146.487 54.3244 146.525 54.2314C146.563 54.133 146.609 54.0635 146.662 54.023C146.749 53.9563 146.831 53.9729 146.907 54.0728C146.95 54.1289 146.988 54.2165 147.019 54.3356C147.044 54.4398 147.069 54.5691 147.093 54.7235C147.091 54.6113 147.092 54.5022 147.095 54.3962C147.101 54.2878 147.108 54.1963 147.115 54.1216C147.137 53.9621 147.172 53.8311 147.222 53.7286C147.276 53.6238 147.337 53.5452 147.405 53.4928C147.486 53.4309 147.568 53.4055 147.651 53.4165C147.734 53.4221 147.805 53.4639 147.865 53.5419C147.908 53.5981 147.94 53.6696 147.962 53.7566C147.972 53.8083 147.979 53.882 147.983 53.9778C147.987 54.0735 147.99 54.1747 147.992 54.2815C147.995 54.3882 148 54.4827 148.009 54.5651C148.018 54.6475 148.031 54.7011 148.05 54.7261C148.074 54.7573 148.103 54.7598 148.138 54.7336C148.191 54.6931 148.234 54.6233 148.266 54.5241C148.305 54.406 148.341 54.2723 148.375 54.1228C148.409 53.9734 148.437 53.8511 148.458 53.7559C148.461 53.7339 148.467 53.7194 148.476 53.7122C148.483 53.7069 148.49 53.7055 148.497 53.7081C148.499 53.7087 148.501 53.7097 148.502 53.7109C148.506 53.7133 148.509 53.7168 148.513 53.7213C148.527 53.74 148.532 53.7632 148.529 53.7907C148.515 53.8701 148.496 53.9711 148.471 54.0938C148.45 54.214 148.422 54.3391 148.387 54.4689C148.353 54.5987 148.313 54.718 148.268 54.8267C148.22 54.9323 148.165 55.0089 148.103 55.0565C148.021 55.1184 147.94 55.1509 147.859 55.1539C147.78 55.1546 147.71 55.1144 147.648 55.0332C147.607 54.9802 147.573 54.9126 147.545 54.8304C147.517 54.7482 147.502 54.6384 147.501 54.5011C147.497 54.3606 147.501 54.2197 147.512 54.0783C147.52 53.9338 147.527 53.8144 147.534 53.7201C147.539 53.6479 147.532 53.6008 147.516 53.579C147.494 53.5509 147.465 53.5512 147.427 53.5797C147.384 53.6131 147.336 53.6865 147.284 53.8C147.236 53.911 147.202 54.055 147.184 54.2317C147.172 54.3449 147.171 54.4764 147.182 54.6262C147.196 54.7737 147.217 54.9179 147.245 55.059C147.272 55.1969 147.301 55.3156 147.332 55.415C147.353 55.4879 147.334 55.5469 147.275 55.5921C147.243 55.616 147.207 55.6292 147.164 55.6319C147.125 55.6323 147.103 55.6167 147.099 55.5854C147.072 55.3886 147.045 55.1945 147.018 55.0032C146.993 54.8095 146.956 54.6156 146.907 54.4213C146.877 54.2912 146.843 54.2013 146.804 54.1513C146.771 54.1077 146.736 54.1001 146.698 54.1287C146.661 54.1573 146.627 54.2199 146.597 54.3167C146.568 54.4081 146.552 54.4996 146.548 54.5915C146.54 54.736 146.543 54.8891 146.558 55.0506C146.57 55.2091 146.585 55.3511 146.601 55.4765C146.611 55.573 146.617 55.6691 146.621 55.7648C146.625 55.8606 146.622 55.9568 146.612 56.0534C146.603 56.1838 146.566 56.274 146.5 56.324ZM131.325 63.6914C131.165 63.465 131.031 63.2766 130.932 63.1322C130.939 63.1036 130.955 63.0586 130.985 62.9949C131.07 62.8156 131.235 62.5675 131.488 62.2529C131.988 61.6286 132.775 60.8136 133.767 59.8767C135.748 58.0065 138.504 55.6901 141.313 53.5113C144.123 51.3316 146.972 49.2997 149.138 47.9941C150.226 47.3381 151.117 46.8805 151.734 46.6725C152.031 46.5727 152.218 46.5471 152.317 46.554C152.35 46.8552 152.322 47.3449 152.226 48.0052C152.127 48.6893 151.96 49.5202 151.741 50.446C151.304 52.2968 150.664 54.5058 149.959 56.6376C149.253 58.7704 148.485 60.8155 147.793 62.3411C147.446 63.1055 147.124 63.7272 146.843 64.1615C146.703 64.3794 146.58 64.5375 146.479 64.6407C146.389 64.7323 146.344 64.7512 146.343 64.7528C146.294 64.7603 146.193 64.7627 146.025 64.7462C145.856 64.7296 145.647 64.6969 145.398 64.6492C144.901 64.5539 144.275 64.4039 143.563 64.2226C143.075 64.0983 142.547 63.9592 141.997 63.8142L141.996 63.8141L141.996 63.814L141.996 63.814L141.995 63.8139L141.994 63.8134C140.951 63.5389 139.83 63.2434 138.75 62.9876C137.105 62.5975 135.501 62.2847 134.365 62.2774C133.812 62.2738 133.28 62.3395 132.916 62.5829C132.718 62.715 132.565 62.9038 132.499 63.1527C132.436 63.3926 132.467 63.6441 132.551 63.8895C132.837 64.7317 133.567 66.0118 134.483 67.4104C135.407 68.821 136.543 70.3881 137.669 71.8163C138.794 73.2421 139.917 74.5409 140.813 75.4089C141.257 75.8387 141.667 76.184 142.007 76.3814C142.172 76.4773 142.361 76.5631 142.553 76.5791C142.655 76.5875 142.773 76.5776 142.888 76.5255C143.008 76.4716 143.1 76.3841 143.164 76.2797L143.17 76.2688C143.294 76.4204 143.44 76.545 143.611 76.628C144.138 76.8836 144.689 76.6618 145.183 76.2177C146.949 74.6304 151.343 71.6043 155.173 68.9859L155.914 68.4801C157.532 67.375 158.999 66.3725 160.046 65.6293C160.646 65.2035 161.119 64.8549 161.404 64.6184C161.531 64.5127 161.668 64.3922 161.741 64.2829C161.761 64.2542 161.801 64.191 161.819 64.105C161.832 64.0395 161.835 63.9411 161.794 63.8435C162.413 63.8218 162.971 63.7414 163.398 63.562C163.658 63.4524 163.897 63.2951 164.063 63.0658C164.234 62.8287 164.304 62.5479 164.278 62.2438C164.221 61.5638 163.884 60.8391 163.416 60.1085C162.943 59.3705 162.307 58.5843 161.601 57.776C161.016 57.1067 160.389 56.4287 159.755 55.7434L159.753 55.7412L159.751 55.739L159.75 55.7382C158.828 54.7413 157.892 53.729 157.05 52.7059C156.348 51.8527 155.733 51.017 155.278 50.2163C154.822 49.4131 154.54 48.668 154.476 47.9927C154.413 47.3302 154.559 46.7273 154.98 46.1768C155.409 45.6157 156.146 45.0796 157.318 44.6115C159.889 43.5848 162.603 42.3895 165.17 41.2588C166.512 40.6674 167.814 40.0938 169.035 39.5711C170.819 38.8073 172.429 38.1522 173.752 37.7014C174.413 37.476 174.995 37.3042 175.486 37.1953C175.983 37.0851 176.361 37.0455 176.623 37.0669C176.85 37.0853 177.049 36.9163 177.067 36.6895C177.086 36.4627 176.917 36.2638 176.69 36.2454C176.305 36.2141 175.833 36.2741 175.307 36.3907C174.776 36.5085 174.162 36.6906 173.486 36.9213C172.132 37.3826 170.498 38.0481 168.711 38.8134C167.476 39.3422 166.167 39.9185 164.823 40.5105L164.82 40.5121L164.817 40.5133L164.816 40.5137L164.816 40.5137L164.814 40.5146L164.813 40.5152C162.256 41.6416 159.57 42.8246 157.013 43.8461C155.76 44.3465 154.876 44.956 154.325 45.6762C153.766 46.407 153.575 47.2212 153.655 48.0703C153.734 48.9065 154.075 49.7674 154.562 50.6234C155.049 51.482 155.697 52.3587 156.414 53.2298C157.261 54.259 158.238 55.3162 159.18 56.3354L159.18 56.3357C159.812 57.0204 160.429 57.6879 160.98 58.3184C161.678 59.1169 162.282 59.8669 162.722 60.5532C163.167 61.2468 163.417 61.8345 163.457 62.3135C163.468 62.4413 163.439 62.5213 163.395 62.5825C163.345 62.6516 163.25 62.7299 163.078 62.8022C162.725 62.9508 162.163 63.0256 161.418 63.0257C159.944 63.0259 157.959 62.7374 156.011 62.421C155.658 62.3636 155.305 62.3052 154.957 62.2475L154.947 62.2459L154.944 62.2454C153.403 61.9899 151.956 61.7503 150.947 61.6807C150.634 61.6592 150.349 61.6529 150.109 61.6697C149.882 61.6857 149.641 61.7251 149.453 61.8321C149.352 61.8894 149.247 61.9776 149.179 62.1109C149.108 62.2488 149.099 62.3946 149.125 62.5262C149.172 62.761 149.334 62.9744 149.512 63.1591C150.204 63.8798 151.244 64.3091 152.372 64.5624C153.509 64.8174 154.788 64.905 156.014 64.9037C157.527 64.9021 158.982 64.765 160.029 64.6272C159.888 64.7298 159.734 64.8399 159.569 64.9572C158.531 65.6939 157.076 66.6882 155.462 67.7909L155.455 67.7954L155.452 67.7977L155.449 67.7991L154.708 68.3055C150.904 70.9056 146.45 73.9709 144.632 75.6047C144.23 75.9659 144.043 75.9216 143.971 75.8864C143.87 75.8377 143.742 75.6996 143.614 75.4212C143.998 74.6076 144.453 73.4396 144.773 72.1189C145.233 70.2145 145.426 67.93 144.648 65.9174C144.55 65.6646 144.432 65.4375 144.273 65.287C144.253 65.2681 144.232 65.2495 144.209 65.2317C144.588 65.3224 144.937 65.3999 145.243 65.4586C145.504 65.5087 145.741 65.5464 145.944 65.5664C146.14 65.5857 146.334 65.5919 146.496 65.5629C146.729 65.521 146.922 65.366 147.067 65.218C147.223 65.0592 147.38 64.85 147.536 64.6088C147.848 64.1247 148.19 63.4609 148.544 62.6816C149.252 61.1197 150.031 59.0446 150.742 56.8965C151.453 54.7473 152.099 52.5147 152.543 50.6355C152.765 49.6963 152.938 48.84 153.042 48.1238C153.144 47.4193 153.187 46.8124 153.127 46.3909C153.103 46.2236 153.032 46.06 152.892 45.9344C152.758 45.8127 152.595 45.7584 152.444 45.7387C152.157 45.7012 151.816 45.7754 151.471 45.8914C150.764 46.1295 149.809 46.6268 148.712 47.2883C146.507 48.6177 143.629 50.6716 140.808 52.86C137.986 55.0493 135.207 57.3834 133.201 59.2774C132.2 60.2227 131.381 61.0683 130.845 61.7371C130.578 62.069 130.367 62.3756 130.241 62.6407C130.178 62.7729 130.126 62.915 130.108 63.0579C130.09 63.2026 130.104 63.3818 130.214 63.5429C130.323 63.7017 130.475 63.9173 130.661 64.1809L130.661 64.1811L130.662 64.182L130.662 64.1824C131.465 65.318 132.895 67.3424 134.172 69.5507C134.959 70.9107 135.678 72.3256 136.152 73.6293C136.632 74.9466 136.837 76.09 136.665 76.9342C136.613 77.1925 136.447 77.4929 136.136 77.8313C135.829 78.1672 135.4 78.5175 134.863 78.8759C133.788 79.5926 132.328 80.3113 130.666 80.9935C127.345 82.3565 123.28 83.5485 120.043 84.2784C119.821 84.3285 119.682 84.5491 119.732 84.7711C119.782 84.9931 120.003 85.1325 120.225 85.0825C123.495 84.3449 127.605 83.1403 130.979 81.7559C132.664 81.0644 134.181 80.3216 135.32 79.5615C135.89 79.1814 136.376 78.7895 136.744 78.3882C137.11 77.9895 137.379 77.5581 137.473 77.0986C137.692 76.0241 137.419 74.7016 136.927 73.3476C136.43 71.98 135.684 70.5183 134.886 69.138C133.585 66.8903 132.122 64.8197 131.325 63.6914ZM143.971 71.9252C143.773 72.747 143.519 73.5046 143.268 74.143C143.114 73.1967 143.065 71.9991 143.103 70.7848C143.154 69.1314 143.362 67.5187 143.637 66.5693C143.698 66.3577 143.759 66.1907 143.817 66.0686C143.836 66.109 143.857 66.1573 143.879 66.2146C144.57 68.0007 144.415 70.0916 143.971 71.9252ZM142.532 75.727C142.588 75.629 142.65 75.5139 142.716 75.3833C142.709 75.3634 142.703 75.3435 142.696 75.3236C142.331 74.1845 142.227 72.4382 142.279 70.7592C142.331 69.0738 142.543 67.3838 142.845 66.3401C142.921 66.0779 143.007 65.8419 143.104 65.6518C143.193 65.4785 143.326 65.2734 143.531 65.1657C143.582 65.139 143.637 65.1184 143.696 65.1061C143.586 65.0786 143.474 65.0503 143.36 65.0213C142.859 64.8936 142.324 64.7527 141.77 64.6068C140.734 64.3339 139.632 64.0435 138.56 63.7895C136.91 63.3984 135.39 63.1082 134.359 63.1015C133.828 63.0981 133.517 63.1726 133.374 63.2679C133.318 63.3052 133.303 63.3355 133.297 63.3616C133.287 63.3968 133.281 63.4765 133.331 63.6247C133.58 64.3571 134.256 65.5591 135.172 66.9589C136.081 68.3467 137.203 69.8943 138.317 71.3059C139.432 72.7198 140.528 73.9859 141.387 74.8167C141.82 75.2363 142.171 75.5237 142.421 75.6688C142.464 75.694 142.501 75.713 142.532 75.727ZM155.879 63.2345C157.295 63.4646 158.772 63.6872 160.07 63.7903C159.05 63.9297 157.562 64.0779 156.013 64.0795C154.821 64.0807 153.608 63.9949 152.553 63.7582C151.489 63.5196 150.635 63.1386 150.106 62.588C150.086 62.5666 150.067 62.5468 150.051 62.5286C150.044 62.5207 150.038 62.5132 150.032 62.5059C150.069 62.5005 150.114 62.4956 150.167 62.4919C150.353 62.4788 150.595 62.4827 150.89 62.503C151.856 62.5695 153.249 62.8002 154.789 63.0551C155.145 63.1142 155.51 63.1746 155.879 63.2345ZM88.4513 95.1425C88.2017 95.333 87.9586 95.4543 87.7219 95.5066C87.4877 95.5619 87.2702 95.5551 87.0694 95.4862C86.8718 95.4148 86.7039 95.2887 86.5658 95.1077C86.4325 94.933 86.3361 94.7128 86.2765 94.4472C86.2146 94.1785 86.2002 93.8686 86.2334 93.5174C86.2571 93.2574 86.3063 92.9952 86.381 92.7308C86.4533 92.4633 86.5383 92.2059 86.6359 91.9586C86.7366 91.7089 86.8458 91.4799 86.9633 91.2717C87.084 91.0611 87.2046 90.8827 87.325 90.7365C87.3919 90.6558 87.4623 90.5799 87.5362 90.5086C87.611 90.4318 87.6873 90.3637 87.7653 90.3042C87.8995 90.2018 88.0358 90.1249 88.1743 90.0735C88.3128 90.0221 88.445 90.0076 88.5708 90.0301C88.6965 90.0526 88.8059 90.1247 88.8987 90.2463C88.9511 90.315 88.9898 90.3916 89.0149 90.4762C89.043 90.5583 89.0624 90.6225 89.073 90.6688C89.0779 90.6946 89.0757 90.7111 89.0664 90.7183C89.0601 90.723 89.0519 90.7219 89.0416 90.715C89.0355 90.7101 89.0305 90.7044 89.0266 90.6978C89.0231 90.692 89.0205 90.6856 89.0187 90.6784C89.0183 90.677 89.018 90.6755 89.0177 90.6739C88.9982 90.5901 88.9705 90.5248 88.9348 90.478C88.8753 90.4 88.7981 90.37 88.7033 90.3881C88.6092 90.4007 88.5044 90.451 88.389 90.5391C88.258 90.6391 88.119 90.7773 87.9721 90.9536C87.8252 91.1298 87.6794 91.3301 87.5344 91.5542C87.3927 91.776 87.2592 92.0087 87.1341 92.2523C87.009 92.4959 86.9019 92.7405 86.8129 92.9862C86.7247 93.2264 86.6622 93.4518 86.6255 93.6625C86.5648 94.0099 86.5505 94.3048 86.5823 94.5471C86.6149 94.7839 86.6812 94.9678 86.7812 95.0988C86.9313 95.2954 87.1412 95.3796 87.4109 95.3514C87.6807 95.3232 87.9701 95.1913 88.279 94.9555C88.3601 94.8936 88.4407 94.8247 88.5209 94.7486C88.6012 94.6726 88.6821 94.5911 88.7638 94.504C88.9544 94.2944 89.1338 94.0637 89.302 93.8119C89.4709 93.5545 89.6171 93.2899 89.7404 93.0181C89.8088 92.8651 89.8685 92.7135 89.9195 92.5633C89.9175 92.5523 89.9157 92.5412 89.9141 92.53C89.8891 92.3615 89.8979 92.1919 89.9404 92.0212C89.9774 91.8611 90.0354 91.7121 90.1145 91.5743C90.1156 91.5256 90.1152 91.4775 90.1132 91.4301C90.1135 91.3657 90.1167 91.3312 90.123 91.3264C90.1261 91.324 90.1312 91.3275 90.1384 91.3369L90.1562 91.3603C90.161 91.3665 90.1662 91.3798 90.1719 91.4002C90.178 91.4188 90.1835 91.4386 90.1882 91.4593C90.2694 91.3447 90.3622 91.2475 90.4666 91.1678C90.5945 91.0702 90.7076 91.0209 90.8057 91.0201C90.9014 91.0162 90.9743 91.0469 91.0243 91.1125C91.0719 91.1749 91.0935 91.2646 91.0889 91.3816C91.0852 91.493 91.0489 91.617 90.9802 91.7534C90.9354 91.837 90.8773 91.9258 90.8058 92.0198C90.7351 92.1083 90.667 92.1775 90.6015 92.2275C90.5516 92.2656 90.5207 92.2769 90.5088 92.2613C90.4993 92.2488 90.5163 92.2259 90.56 92.1926C90.6006 92.1616 90.6546 92.1031 90.7222 92.0169C90.7905 91.9253 90.8498 91.8283 90.8999 91.7258C90.9523 91.6068 90.9781 91.5081 90.9775 91.4296C90.9768 91.3511 90.961 91.2916 90.9301 91.251C90.9015 91.2136 90.8621 91.1943 90.8118 91.1931C90.7647 91.1896 90.7146 91.2081 90.6616 91.2486C90.6117 91.2867 90.5662 91.3436 90.5253 91.4193C90.4657 91.5289 90.4233 91.6674 90.3981 91.8348C90.3735 91.9967 90.3717 92.1561 90.3927 92.3129C90.4136 92.4697 90.4622 92.598 90.5384 92.6979C90.5908 92.7665 90.6535 92.81 90.7267 92.8282C90.803 92.844 90.8801 92.8222 90.9581 92.7626C91.0392 92.7007 91.1138 92.6043 91.1817 92.4735C91.2473 92.3395 91.3061 92.1934 91.3582 92.0351C91.4079 91.8738 91.4497 91.7184 91.4838 91.569C91.5179 91.4195 91.5427 91.2969 91.5584 91.201C91.5617 91.1763 91.5664 91.1588 91.5725 91.1486C91.5902 91.0428 91.6035 90.9453 91.6125 90.8561C91.6268 90.6872 91.6514 90.5351 91.6863 90.3998C91.7046 90.3266 91.7327 90.2632 91.7707 90.2095C91.8063 90.1527 91.846 90.1076 91.8897 90.0743C91.9645 90.0171 92.0436 89.9913 92.1269 89.9969C92.2101 90.0025 92.2815 90.0443 92.341 90.1223C92.3863 90.1816 92.4183 90.2559 92.4371 90.3452C92.4623 90.4494 92.4751 90.5631 92.4753 90.6863C92.4763 90.8041 92.4777 90.9191 92.4794 91.0313C92.4841 91.1215 92.4913 91.1925 92.5012 91.2442C92.511 91.296 92.5231 91.3312 92.5374 91.3499C92.5565 91.3749 92.5785 91.3778 92.6034 91.3588C92.6284 91.3397 92.6535 91.2983 92.6789 91.2345C92.7043 91.1707 92.7253 91.0979 92.7418 91.0161C92.7523 90.9587 92.7606 90.9081 92.7665 90.864L92.7809 90.7568C92.7955 90.6271 92.8065 90.4928 92.814 90.3538C92.8191 90.2117 92.8207 90.0845 92.819 89.9723C92.8191 89.8883 92.8193 89.8239 92.8197 89.7791C92.8233 89.732 92.8272 89.6821 92.8314 89.6295C92.8392 89.5297 92.8716 89.4557 92.9285 89.4073C92.9628 89.3811 93.0077 89.3592 93.0633 89.3414C93.1197 89.3182 93.1851 89.3102 93.2598 89.3174C93.2619 89.3849 93.2615 89.4815 93.2587 89.6071C93.2565 89.7272 93.2553 89.8614 93.255 90.0098C93.2554 90.1527 93.2598 90.2975 93.2681 90.4442C93.2795 90.5885 93.2971 90.7183 93.3208 90.8335C93.3445 90.9487 93.3802 91.0375 93.4278 91.0999C93.4612 91.1435 93.4998 91.1683 93.5438 91.1742C93.5658 91.1772 93.5706 91.1834 93.5581 91.193C93.5532 91.1992 93.5484 91.204 93.5438 91.2076C93.5412 91.2096 93.5387 91.2112 93.5362 91.2123C93.5341 91.2133 93.5321 91.214 93.5301 91.2144C93.4776 91.2297 93.4156 91.2326 93.3441 91.223C93.2757 91.211 93.2034 91.1551 93.1272 91.0553C93.0629 90.9711 93.0103 90.873 92.9693 90.7611C92.9259 90.646 92.8916 90.5266 92.8662 90.4028C92.8637 90.5677 92.8521 90.7369 92.8316 90.9106C92.8142 91.0819 92.7822 91.2372 92.7354 91.3765C92.6895 91.5103 92.6259 91.6082 92.5448 91.6701C92.4762 91.7225 92.4042 91.7478 92.3288 91.7461C92.2565 91.742 92.1907 91.701 92.1311 91.623C92.0883 91.5668 92.0527 91.4976 92.0246 91.4155C91.9964 91.3333 91.9795 91.2302 91.9737 91.1062C91.968 90.9822 91.9681 90.8562 91.9741 90.7282C91.9808 90.5947 91.9877 90.4809 91.9947 90.3866C91.9981 90.3198 91.9903 90.274 91.9712 90.249C91.9474 90.2178 91.9183 90.2153 91.884 90.2415C91.8466 90.2701 91.8126 90.3355 91.782 90.4378C91.7508 90.5456 91.7243 90.6695 91.7027 90.8094C91.6788 90.9462 91.6583 91.0779 91.6413 91.2044C91.6219 91.3278 91.6028 91.4288 91.5838 91.5075C91.5816 91.5236 91.576 91.5353 91.567 91.5425C91.5459 91.6481 91.5229 91.757 91.4981 91.8691C91.4513 92.0924 91.3805 92.3069 91.2857 92.5126C91.1916 92.7128 91.0599 92.8799 90.8907 93.014C90.7535 93.1188 90.613 93.1741 90.4694 93.18C90.3266 93.1805 90.2063 93.1167 90.1087 92.9888C90.0598 92.9247 90.0195 92.8572 89.988 92.7863C89.9379 92.932 89.8806 93.0812 89.8164 93.2341C89.7094 93.4886 89.5847 93.7392 89.4424 93.9861C89.2976 94.2299 89.1374 94.4534 88.9617 94.6566C88.7992 94.8448 88.6291 95.0068 88.4513 95.1425ZM86.9896 93.829C86.9552 93.8551 86.9224 93.8703 86.891 93.8745C86.8814 93.8764 86.8707 93.8767 86.8589 93.8757C86.8495 93.8748 86.8394 93.873 86.8286 93.8703C86.8018 93.8611 86.7789 93.8441 86.7599 93.8191C86.7313 93.7817 86.7269 93.7209 86.7466 93.6367C86.7694 93.5502 86.8531 93.427 86.9978 93.2672C87.0468 93.215 87.1033 93.1596 87.1671 93.101C87.231 93.0423 87.3004 92.9845 87.3753 92.9273C87.5063 92.8273 87.646 92.7355 87.7945 92.6518C87.9437 92.5626 88.0871 92.4951 88.2249 92.4492C88.3658 92.4009 88.4854 92.3861 88.5837 92.4049C88.619 92.4125 88.6451 92.4272 88.6617 92.449C88.6808 92.474 88.6778 92.496 88.6529 92.515C88.6342 92.5293 88.6064 92.5382 88.5695 92.5416C88.4879 92.5447 88.3931 92.5726 88.2853 92.6253C88.1805 92.6756 88.0688 92.746 87.9503 92.8365C87.7412 92.996 87.5322 93.1976 87.3231 93.4411C87.257 93.5163 87.1979 93.5909 87.146 93.6651C87.0916 93.7363 87.0395 93.7909 86.9896 93.829ZM94.1339 90.5017C94.1027 90.5255 94.0593 90.5463 94.0037 90.564C93.9505 90.5849 93.8878 90.5933 93.8156 90.5892C93.8142 90.5162 93.8165 90.4157 93.8224 90.2877C93.8226 90.2564 93.8226 90.2244 93.8226 90.1917C93.8225 90.1766 93.8225 90.1613 93.8225 90.1459C93.8222 90.0578 93.8214 89.9649 93.8201 89.8673C93.818 89.7159 93.8113 89.5679 93.7999 89.4236C93.788 89.5116 93.7739 89.6063 93.7575 89.7077C93.7411 89.8091 93.7211 89.9059 93.6975 89.9979C93.6922 90.0168 93.6833 90.031 93.6708 90.0405C93.6583 90.05 93.6473 90.0486 93.6378 90.0361C93.6235 90.0174 93.6209 89.9848 93.6299 89.9384C93.6578 89.7937 93.6862 89.6338 93.7154 89.4585C93.7476 89.2808 93.7483 89.1199 93.7172 88.9757C93.7042 88.9263 93.6858 88.8861 93.662 88.8549C93.6311 88.8143 93.6042 88.7953 93.5815 88.7979C93.5619 88.798 93.5461 88.7903 93.5342 88.7747C93.5128 88.7466 93.5161 88.7219 93.5442 88.7004C93.5598 88.6885 93.5746 88.6821 93.5887 88.6812C93.635 88.6706 93.6903 88.6753 93.7549 88.6951C93.8194 88.715 93.8862 88.7702 93.9553 88.8606C94.0196 88.9449 94.0738 89.0516 94.1181 89.1807C94.1152 89.1434 94.1128 89.1069 94.111 89.071C94.1089 89.0306 94.1075 88.991 94.1068 88.9524C94.103 88.8763 94.1012 88.806 94.1014 88.7417C94.1019 88.6129 94.121 88.5021 94.1587 88.4091C94.1971 88.3107 94.2429 88.2412 94.2959 88.2008C94.3832 88.1341 94.465 88.1507 94.5412 88.2505C94.5841 88.3067 94.6213 88.3943 94.6529 88.5133C94.6781 88.6175 94.7028 88.7468 94.7269 88.9013C94.7251 88.789 94.7258 88.6799 94.7288 88.5739C94.735 88.4655 94.7416 88.374 94.7489 88.2994C94.7703 88.1399 94.8061 88.0089 94.8562 87.9064C94.9095 87.8015 94.9705 87.7229 95.0391 87.6705C95.1202 87.6086 95.2021 87.5832 95.2846 87.5943C95.3678 87.5999 95.4392 87.6417 95.4987 87.7197C95.5416 87.7758 95.574 87.8474 95.5959 87.9343C95.6058 87.986 95.6127 88.0598 95.6166 88.1555C95.6206 88.2512 95.6238 88.3525 95.6263 88.4592C95.6287 88.5659 95.6342 88.6605 95.6428 88.7428C95.6513 88.8252 95.6651 88.8788 95.6842 88.9038C95.708 88.935 95.737 88.9375 95.7713 88.9113C95.8244 88.8708 95.8674 88.801 95.9003 88.7018C95.9385 88.5837 95.9747 88.45 96.0088 88.3006C96.0428 88.1511 96.0705 88.0288 96.0916 87.9337C96.0946 87.9117 96.1008 87.8971 96.1101 87.89C96.1168 87.8848 96.1234 87.8833 96.1299 87.8855C96.1356 87.8873 96.1412 87.8918 96.1467 87.8991C96.1541 87.9087 96.159 87.9196 96.1616 87.9316C96.164 87.9428 96.1644 87.9551 96.1626 87.9684C96.1491 88.0478 96.13 88.1488 96.1051 88.2715C96.0833 88.3918 96.0553 88.5168 96.0211 88.6466C95.9869 88.7764 95.9471 88.8957 95.9016 89.0044C95.8539 89.11 95.7988 89.1866 95.7364 89.2342C95.6553 89.2961 95.5739 89.3286 95.4923 89.3317C95.4138 89.3323 95.3436 89.2921 95.2817 89.211C95.2412 89.1579 95.2069 89.0903 95.1787 89.0081C95.1506 88.9259 95.1359 88.8162 95.1347 88.6788C95.1312 88.5383 95.1347 88.3974 95.1453 88.256C95.1535 88.1115 95.1611 87.9921 95.1682 87.8979C95.1723 87.8256 95.166 87.7786 95.1494 87.7567C95.1279 87.7287 95.0985 87.7289 95.0611 87.7575C95.0174 87.7908 94.9697 87.8642 94.9181 87.9777C94.8696 88.0888 94.8362 88.2327 94.8181 88.4095C94.8057 88.5226 94.8048 88.6541 94.8155 88.804C94.8293 88.9514 94.8505 89.0957 94.8792 89.2367C94.9055 89.3747 94.9344 89.4933 94.9658 89.5928C94.9868 89.6656 94.9677 89.7246 94.9084 89.7699C94.8772 89.7937 94.8404 89.8069 94.7981 89.8097C94.7588 89.81 94.7371 89.7945 94.7329 89.7631C94.7061 89.5663 94.679 89.3723 94.6515 89.1809C94.6271 88.9873 94.5901 88.7933 94.5406 88.599C94.5105 88.469 94.4764 88.379 94.4383 88.3291C94.4049 88.2854 94.3695 88.2778 94.3321 88.3064C94.2947 88.335 94.261 88.3977 94.2312 88.4945C94.2022 88.5858 94.1857 88.6774 94.1817 88.7692C94.1735 88.9138 94.1768 89.0668 94.1915 89.2284C94.2038 89.3868 94.2184 89.5288 94.2351 89.6543C94.2446 89.7507 94.2513 89.8468 94.2552 89.9426C94.2591 90.0383 94.256 90.1345 94.2458 90.2311C94.2367 90.3615 94.1994 90.4517 94.1339 90.5017ZM103.513 97.4122C104.929 97.6423 106.405 97.8649 107.703 97.968C106.683 98.1074 105.195 98.2556 103.647 98.2572C102.454 98.2585 101.242 98.1726 100.187 97.9359C99.1231 97.6973 98.2691 97.3164 97.74 96.7658C97.7105 96.7351 97.6859 96.7077 97.6655 96.6836C97.7032 96.6782 97.748 96.6734 97.8007 96.6697C97.9871 96.6566 98.229 96.6605 98.5237 96.6807C99.4902 96.7473 100.883 96.978 102.423 97.2329C102.779 97.2919 103.144 97.3523 103.513 97.4122Z" fill="#F0E4D1"/>
</svg>
