<svg width="229" height="107" viewBox="0 0 229 107" fill="none" xmlns="http://www.w3.org/2000/svg">
<path id="Subtract" fill-rule="evenodd" clip-rule="evenodd" d="M10 0C4.47715 0 0 4.47715 0 10V97C0 102.523 4.47716 107 10 107H219C224.523 107 229 102.523 229 97V10C229 4.47715 224.523 0 219 0H10ZM186.985 26.5493C188.201 26.6469 190.419 26.4366 192.884 25.4304C192.629 24.9523 192.325 24.5143 191.981 24.1198C189.5 25.092 187.271 25.2991 185.999 25.1971C185.815 25.1824 185.678 25.0217 185.693 24.8382C185.708 24.6547 185.869 24.5179 186.052 24.5326C187.19 24.6238 189.205 24.4457 191.478 23.5983C189.427 21.6792 186.339 21.0851 183.632 22.3371C180.067 23.9859 178.514 28.2121 180.163 31.7766C181.812 35.3411 186.038 36.8941 189.603 35.2453C191.599 34.3218 192.965 32.5899 193.49 30.6185C191.54 31.2073 189.845 31.3326 188.798 31.2487C188.615 31.234 188.478 31.0733 188.492 30.8898C188.507 30.7063 188.668 30.5695 188.851 30.5842C189.883 30.6669 191.635 30.5282 193.647 29.8704C193.731 29.3247 193.752 28.7667 193.706 28.2077C191.282 29.1332 189.112 29.3307 187.865 29.2306C187.681 29.2159 187.544 29.0552 187.559 28.8717C187.574 28.6882 187.734 28.5514 187.918 28.5661C189.101 28.661 191.232 28.4645 193.617 27.5273C193.526 27.0237 193.378 26.5229 193.172 26.0331C190.588 27.0941 188.248 27.3194 186.932 27.2139C186.748 27.1992 186.611 27.0385 186.626 26.855C186.641 26.6715 186.801 26.5346 186.985 26.5493ZM189.883 35.8503C192.205 34.7761 193.747 32.7015 194.233 30.3754C194.779 30.1825 195.341 29.9529 195.91 29.6816C195.601 32.8723 193.655 35.8193 190.536 37.2623C185.857 39.4263 180.311 37.388 178.147 32.7096C175.983 28.0312 178.021 22.4843 182.699 20.3203C186.539 18.5443 190.963 19.5987 193.623 22.62C193.129 22.8891 192.639 23.124 192.157 23.3283C189.918 21.0585 186.412 20.3166 183.352 21.732C179.453 23.5354 177.755 28.1578 179.558 32.0564C181.362 35.9551 185.984 37.6537 189.883 35.8503ZM195.952 28.9181C195.41 29.1913 194.874 29.4244 194.352 29.622C194.412 29.0697 194.413 28.508 194.351 27.9464C194.836 27.7387 195.328 27.5014 195.822 27.2313C195.918 27.7935 195.96 28.3579 195.952 28.9181ZM196.436 26.8796C196.545 27.4398 196.605 28.0029 196.618 28.5633C198.136 27.7086 199.676 26.5268 201.078 24.9137C205.565 19.7488 210.84 19.0941 212.98 19.4388C213.161 19.4681 213.285 19.6392 213.256 19.8209C213.227 20.0027 213.055 20.1263 212.874 20.097C210.957 19.7881 205.914 20.364 201.581 25.3509C200.022 27.1458 198.295 28.4287 196.605 29.3306C196.598 29.4524 196.589 29.5739 196.578 29.6951L197.052 29.5442L197.857 29.2878L198.022 29.8052L197.217 30.0615L197.262 30.2032L196.745 30.3678L196.7 30.2262L196.567 29.8102C196.216 33.2038 194.137 36.3311 190.816 37.8673C185.803 40.1859 179.86 38.002 177.542 32.9895C175.223 27.9769 177.407 22.0338 182.419 19.7152C186.577 17.7922 191.374 18.9663 194.213 22.2825C195.602 21.4494 196.998 20.3357 198.279 18.8621C202.766 13.6972 208.041 13.0425 210.181 13.3872C210.362 13.4165 210.486 13.5876 210.457 13.7693C210.427 13.9511 210.256 14.0747 210.074 14.0454C208.157 13.7365 203.114 14.3124 198.782 19.2993C197.476 20.8022 196.053 21.9462 194.633 22.8081C194.936 23.2147 195.211 23.649 195.454 24.1096C196.741 23.2992 198.026 22.2433 199.212 20.8788C203.699 15.714 208.974 15.0592 211.113 15.404C211.295 15.4333 211.419 15.6043 211.389 15.7861C211.36 15.9678 211.189 16.0914 211.007 16.0621C209.09 15.7533 204.047 16.3292 199.715 21.316C198.465 22.7547 197.108 23.8644 195.748 24.7126C195.966 25.1998 196.141 25.6955 196.276 26.1954C197.6 25.3763 198.925 24.2992 200.144 22.8955C204.632 17.7307 209.907 17.076 212.046 17.4207C212.228 17.45 212.352 17.6211 212.322 17.8028C212.293 17.9846 212.122 18.1082 211.94 18.0789C210.023 17.77 204.98 18.3459 200.648 23.3328C199.323 24.8579 197.877 26.0134 196.436 26.8796ZM195.679 26.548C195.197 26.8188 194.718 27.0568 194.246 27.2652C194.144 26.7606 193.991 26.2592 193.784 25.768C194.242 25.5587 194.706 25.3226 195.171 25.0569C195.385 25.5467 195.554 26.0453 195.679 26.548ZM193.498 25.1652C193.955 24.957 194.418 24.7209 194.882 24.4539C194.638 23.9886 194.36 23.5517 194.052 23.1451C193.573 23.4105 193.097 23.6449 192.627 23.8513C192.956 24.2518 193.249 24.6907 193.498 25.1652ZM181.384 30.0998C181.178 30.3241 181.033 30.6633 181.146 30.9572C181.219 31.1447 181.404 31.1664 181.577 31.0994C181.84 30.9978 182.082 30.599 181.978 30.3303C181.919 30.1764 181.802 30.0736 181.633 30.0616C181.63 30.0627 181.628 30.0637 181.627 30.0609C181.626 30.0515 181.623 30.0431 181.619 30.0319C181.601 29.9871 181.545 29.9831 181.506 29.9982C181.458 30.0166 181.416 30.0651 181.384 30.0998ZM182.13 29.3906C182.454 29.7639 182.795 30.9892 182.911 31.4207C182.92 31.462 182.966 31.4637 182.994 31.4529C183.039 31.4356 183.067 31.3925 183.058 31.3444C182.966 30.8558 182.618 29.4399 182.25 29.1675C182.222 29.146 182.191 29.1484 182.16 29.1603C182.098 29.1841 182.044 29.2598 182.07 29.3269C182.076 29.3424 182.09 29.3547 182.105 29.3669C182.109 29.3703 182.113 29.3736 182.117 29.3771C182.119 29.3793 182.121 29.3815 182.124 29.3838C182.126 29.386 182.128 29.3883 182.13 29.3906ZM181.524 30.2196C181.547 30.2204 181.566 30.2195 181.587 30.2176C181.698 30.2295 181.77 30.3078 181.809 30.4085C181.877 30.5849 181.734 30.8556 181.558 30.9237C181.46 30.9615 181.386 30.9288 181.349 30.8337C181.274 30.6378 181.388 30.3751 181.524 30.2196ZM184.572 29.0572C184.511 28.782 184.824 28.3954 185.09 28.336C185.134 28.3262 185.187 28.342 185.198 28.3889L185.198 28.3918C185.311 28.3852 185.409 28.4801 185.433 28.5885C185.468 28.7466 185.312 29.1473 184.949 29.2283C184.782 29.2656 184.615 29.2475 184.572 29.0572ZM186.045 30.2562C186.056 30.3059 186.019 30.345 185.982 30.3594C185.771 30.4465 185.611 30.5312 185.436 30.6411C185.433 30.6429 185.43 30.645 185.426 30.6471L185.421 30.6503L185.409 30.6582C185.401 30.6639 185.392 30.6699 185.382 30.6758C185.372 30.6822 185.361 30.6885 185.35 30.6942L185.355 30.7205C185.367 30.7703 185.322 30.8172 185.278 30.827C185.24 30.8355 185.219 30.8277 185.203 30.7945C185.189 30.7663 185.175 30.736 185.16 30.7044C185.071 30.5166 184.962 30.2843 184.801 30.165C184.735 30.1152 184.807 30.0006 184.892 29.9817C185.047 29.947 185.2 30.2602 185.287 30.4961C185.333 30.4703 185.388 30.4397 185.45 30.4136L185.475 30.3751C185.554 30.2574 185.662 30.0966 185.635 29.9757C185.629 29.9494 185.596 29.926 185.57 29.9348C185.493 29.9622 185.38 30.0225 185.313 30.0582L185.276 30.0773C185.213 30.1099 185.122 30.1455 185.091 30.0573C185.065 29.9831 185.16 29.9281 185.221 29.8961L185.246 29.8829L185.285 29.8625L185.285 29.8624C185.376 29.8145 185.474 29.7628 185.57 29.7412C185.673 29.7183 185.805 29.7624 185.831 29.8766C185.862 30.0172 185.782 30.1826 185.692 30.3135C185.803 30.2733 185.903 30.2387 185.972 30.2201C186.001 30.2136 186.038 30.224 186.045 30.2562ZM186.15 29.1016C186.159 29.1425 186.128 29.1833 186.089 29.2012C185.568 29.4558 184.791 29.8015 184.155 29.9433C184.097 29.9564 184.008 29.9731 183.991 29.897C183.976 29.8296 184.034 29.7707 184.092 29.7576C184.123 29.7507 184.154 29.7446 184.185 29.7385L184.185 29.7385L184.185 29.7384C184.216 29.7323 184.247 29.7262 184.277 29.7194C184.722 29.62 185.619 29.2693 186.056 29.0672C186.092 29.0499 186.141 29.0606 186.15 29.1016ZM185.261 28.6452C185.241 28.554 185.187 28.5447 185.144 28.5374C185.131 28.5351 185.119 28.533 185.109 28.5286L185.089 28.5386C185.062 28.552 185.035 28.5654 185.015 28.5771C184.895 28.6563 184.757 28.8406 184.79 28.987C184.808 29.0661 184.891 29.066 184.955 29.0516C185.11 29.017 185.297 28.8063 185.261 28.6452ZM203.432 42.9253C203.16 43.0689 203.375 45.5526 203.517 46.7765C201.348 39.5754 205.51 33.2048 207.862 30.9196C204.619 33.0949 202.879 38.9889 202.415 41.6639C202.19 41.5502 202.277 39.6416 202.349 38.7015L202.508 38.7585C202.282 37.0225 203.835 33.9482 204.64 32.628L204.895 32.8328L204.881 32.2284C206.852 29.8312 209.143 28.2639 211.206 27.2786L211.073 26.8599L211.59 26.6953L211.703 27.0503C213.561 26.2305 215.189 25.8848 216.162 25.8212C214.446 26.6297 212.363 29.8499 211.536 31.359L209.21 31.9264L211.238 31.8816C211.28 32.5137 209.574 35.9664 208.716 37.6137L205.648 38.8856L208.182 38.348C207.425 39.9128 203.772 42.7457 203.432 42.9253ZM205.504 46.197C205.228 46.2848 204.979 46.3147 204.757 46.2865C204.537 46.2618 204.35 46.1884 204.197 46.0661C204.048 45.9428 203.941 45.7811 203.877 45.5811C203.816 45.388 203.801 45.1669 203.831 44.9178C203.861 44.6652 203.945 44.3916 204.083 44.097C204.184 43.8786 204.308 43.6663 204.455 43.4599C204.601 43.2501 204.755 43.053 204.916 42.8686C205.081 42.6831 205.247 42.5182 205.414 42.374C205.584 42.2286 205.744 42.1111 205.894 42.0216C205.978 41.9723 206.062 41.9283 206.149 41.8894C206.237 41.8459 206.325 41.8104 206.411 41.783C206.559 41.7358 206.702 41.7113 206.838 41.7097C206.974 41.7081 207.093 41.7366 207.195 41.7952C207.298 41.8538 207.37 41.9504 207.413 42.0849C207.437 42.1607 207.447 42.2393 207.443 42.3205C207.441 42.4006 207.438 42.4624 207.433 42.5058C207.432 42.513 207.431 42.5193 207.429 42.5247C207.425 42.5371 207.419 42.5444 207.412 42.5467C207.405 42.5489 207.398 42.5454 207.392 42.5361C207.389 42.5316 207.387 42.5269 207.385 42.522C207.384 42.5166 207.383 42.511 207.383 42.5051C207.383 42.5012 207.383 42.4972 207.384 42.4931C207.393 42.4142 207.389 42.3489 207.372 42.2972C207.345 42.211 207.287 42.161 207.199 42.1472C207.114 42.1289 207.007 42.1401 206.88 42.1807C206.735 42.2269 206.571 42.3036 206.389 42.4111C206.207 42.5185 206.018 42.647 205.822 42.7966C205.63 42.9452 205.442 43.1057 205.258 43.2784C205.073 43.451 204.905 43.6302 204.751 43.8158C204.6 43.9969 204.475 44.1733 204.378 44.3448C204.218 44.6276 204.113 44.8792 204.066 45.0995C204.021 45.3152 204.021 45.4955 204.067 45.6403C204.136 45.8576 204.292 45.9959 204.535 46.0552C204.778 46.1146 205.071 46.0899 205.412 45.9811C205.502 45.9526 205.593 45.9177 205.686 45.8766C205.78 45.8356 205.875 45.7899 205.973 45.7397C206.204 45.6169 206.431 45.4723 206.656 45.3059C206.882 45.135 207.091 44.9506 207.283 44.7529C207.39 44.6413 207.489 44.5282 207.58 44.4136C207.581 44.4035 207.583 44.3933 207.585 44.3831C207.616 44.229 207.676 44.0844 207.766 43.9494C207.848 43.8219 207.945 43.7106 208.056 43.6155C208.072 43.5736 208.087 43.5317 208.1 43.4899C208.12 43.4341 208.134 43.4051 208.14 43.4029C208.144 43.4018 208.147 43.4064 208.151 43.4168L208.159 43.4426C208.161 43.4495 208.161 43.4627 208.16 43.4821C208.16 43.4923 208.159 43.5026 208.158 43.5131C208.158 43.5215 208.157 43.53 208.156 43.5386C208.262 43.4643 208.373 43.4087 208.488 43.3719C208.63 43.3269 208.743 43.3193 208.828 43.349C208.913 43.3754 208.966 43.4247 208.99 43.4971C209.011 43.5661 209.002 43.6507 208.962 43.7509C208.924 43.8465 208.854 43.9429 208.752 44.0399C208.687 44.0986 208.609 44.1576 208.518 44.2171C208.429 44.272 208.349 44.3109 208.276 44.334C208.221 44.3516 208.191 44.3517 208.185 44.3345C208.181 44.3207 208.203 44.3061 208.251 44.2907C208.296 44.2765 208.361 44.2424 208.446 44.1886C208.534 44.1303 208.616 44.0644 208.691 43.991C208.773 43.904 208.827 43.8263 208.85 43.758C208.874 43.6896 208.879 43.633 208.865 43.5882C208.852 43.5468 208.823 43.5178 208.78 43.5012C208.74 43.4835 208.691 43.484 208.632 43.5027C208.577 43.5202 208.52 43.5555 208.461 43.6085C208.375 43.6852 208.295 43.7923 208.221 43.9298C208.15 44.0628 208.099 44.2006 208.068 44.3432C208.038 44.4859 208.04 44.6124 208.075 44.7228C208.099 44.7986 208.14 44.8558 208.198 44.8944C208.259 44.9318 208.333 44.9368 208.419 44.9094C208.509 44.8808 208.604 44.8203 208.703 44.7277C208.802 44.6318 208.898 44.5232 208.993 44.402C209.086 44.2773 209.171 44.1554 209.247 44.0363C209.323 43.9171 209.382 43.8183 209.426 43.7399C209.436 43.7195 209.446 43.7058 209.454 43.6988C209.503 43.6124 209.544 43.5319 209.58 43.4573C209.645 43.3151 209.713 43.1906 209.786 43.084C209.824 43.0262 209.868 42.9798 209.918 42.945C209.967 42.9067 210.015 42.8799 210.063 42.8645C210.146 42.8382 210.223 42.8404 210.293 42.8711C210.364 42.9018 210.413 42.9602 210.44 43.0464C210.461 43.112 210.466 43.1864 210.455 43.2698C210.444 43.3681 210.42 43.4708 210.382 43.5779C210.346 43.6804 210.312 43.7807 210.278 43.8787C210.254 43.9585 210.238 44.0224 210.231 44.0703C210.229 44.0857 210.227 44.0997 210.226 44.1122C210.225 44.1299 210.225 44.1449 210.226 44.157C210.227 44.1632 210.228 44.1686 210.23 44.1733C210.238 44.2009 210.257 44.2103 210.284 44.2015C210.312 44.1927 210.346 44.1646 210.388 44.1171C210.43 44.0696 210.471 44.0129 210.511 43.947C210.538 43.9005 210.561 43.859 210.579 43.8226L210.625 43.734C210.678 43.6259 210.729 43.5127 210.779 43.3944C210.828 43.2725 210.869 43.1626 210.902 43.0647L210.937 42.9668L210.963 42.8972C210.98 42.8574 210.999 42.8153 211.019 42.7709C211.057 42.6867 211.108 42.6325 211.173 42.6082C211.21 42.5961 211.256 42.591 211.31 42.5928C211.366 42.5902 211.426 42.6035 211.488 42.633C211.469 42.6923 211.439 42.776 211.397 42.8842C211.358 42.9878 211.315 43.104 211.269 43.2327C211.225 43.3569 211.184 43.4839 211.145 43.6139C211.11 43.7428 211.085 43.8609 211.07 43.9683C211.055 44.0757 211.058 44.1639 211.08 44.2328C211.096 44.2811 211.122 44.3146 211.158 44.3334C211.176 44.3428 211.178 44.3497 211.165 44.3541C211.152 44.362 211.142 44.3653 211.134 44.364C211.083 44.3611 211.028 44.3443 210.969 44.3137C210.914 44.2821 210.868 44.2111 210.833 44.1007C210.803 44.0076 210.788 43.9061 210.787 43.7962C210.786 43.6829 210.793 43.5685 210.809 43.4531C210.756 43.5955 210.693 43.7389 210.621 43.8833C210.553 44.0266 210.477 44.1515 210.393 44.2579C210.312 44.3599 210.226 44.4251 210.137 44.4537C210.061 44.4778 209.99 44.4774 209.925 44.4525C209.864 44.4265 209.819 44.3704 209.792 44.2842C209.772 44.2221 209.763 44.1511 209.764 44.0709C209.765 43.9908 209.782 43.8961 209.816 43.7866C209.849 43.6772 209.889 43.5678 209.934 43.4586C209.981 43.3447 210.022 43.248 210.058 43.1684C210.081 43.1115 210.089 43.0692 210.08 43.0416C210.069 43.0071 210.044 42.9959 210.007 43.008C209.965 43.0212 209.915 43.0674 209.857 43.1468C209.796 43.2307 209.735 43.33 209.673 43.4448C209.609 43.5561 209.551 43.664 209.497 43.7686C209.442 43.8697 209.394 43.9515 209.353 44.0139C209.346 44.0273 209.337 44.0357 209.327 44.0391C209.276 44.1243 209.222 44.2117 209.166 44.3013C209.056 44.4807 208.928 44.6449 208.782 44.794C208.638 44.9386 208.471 45.0428 208.283 45.1067C208.131 45.155 207.992 45.1594 207.866 45.12C207.741 45.076 207.657 44.9833 207.612 44.8419C207.589 44.771 207.575 44.6999 207.57 44.6286C207.481 44.7395 207.385 44.8513 207.282 44.9641C207.11 45.1518 206.924 45.3307 206.723 45.5008C206.522 45.6675 206.313 45.8118 206.098 45.9337C205.898 46.0466 205.7 46.1344 205.504 46.197ZM204.643 44.6024C204.605 44.6145 204.571 44.6175 204.543 44.6114C204.527 44.6089 204.509 44.6012 204.49 44.5884C204.47 44.5721 204.455 44.5501 204.446 44.5225C204.433 44.4812 204.448 44.427 204.491 44.36C204.538 44.292 204.649 44.2111 204.824 44.1173C204.883 44.0872 204.949 44.0566 205.023 44.0255C205.097 43.9945 205.175 43.9657 205.257 43.9394C205.402 43.8933 205.552 43.8569 205.707 43.8304C205.864 43.7993 206.01 43.7852 206.144 43.7882C206.281 43.79 206.389 43.8144 206.469 43.8612C206.497 43.8788 206.515 43.8996 206.523 43.9237C206.532 43.9513 206.522 43.9695 206.495 43.9783C206.474 43.9849 206.447 43.984 206.414 43.9755C206.342 43.9528 206.251 43.9476 206.141 43.9598C206.035 43.971 205.916 43.9974 205.785 44.0392C205.554 44.1128 205.31 44.2228 205.053 44.3693C204.972 44.414 204.897 44.4605 204.829 44.5088C204.76 44.5537 204.698 44.5849 204.643 44.6024ZM211.879 43.9328C211.845 43.9438 211.801 43.9484 211.747 43.9465C211.694 43.9481 211.637 43.9359 211.576 43.9099C211.597 43.846 211.63 43.7595 211.675 43.6502C211.695 43.5954 211.716 43.5381 211.737 43.4782C211.758 43.4163 211.781 43.3518 211.804 43.2845C211.849 43.1524 211.889 43.0218 211.924 42.893C211.886 42.9657 211.845 43.0436 211.799 43.1265C211.753 43.2095 211.706 43.2872 211.657 43.3598C211.646 43.3746 211.634 43.3841 211.62 43.3885C211.607 43.3929 211.597 43.3882 211.593 43.3744C211.587 43.3537 211.594 43.3246 211.617 43.2872C211.686 43.1702 211.76 43.0401 211.84 42.897C211.923 42.7527 211.974 42.6132 211.991 42.4784C211.995 42.4315 211.992 42.3908 211.981 42.3563C211.967 42.3115 211.949 42.2867 211.929 42.2818C211.912 42.2759 211.9 42.2643 211.895 42.247C211.885 42.216 211.896 42.1955 211.927 42.1856C211.944 42.1802 211.959 42.1792 211.971 42.1828C212.015 42.188 212.061 42.2092 212.111 42.2465C212.161 42.2838 212.202 42.3524 212.234 42.4525C212.264 42.5456 212.277 42.6551 212.276 42.7809C212.295 42.7102 212.315 42.643 212.337 42.5792C212.357 42.5119 212.378 42.4504 212.398 42.3946C212.438 42.2829 212.489 42.1926 212.551 42.1236C212.615 42.0501 212.676 42.004 212.735 41.9853C212.831 41.9546 212.897 41.9944 212.932 42.1047C212.952 42.1668 212.957 42.2544 212.948 42.3676C212.937 42.4659 212.918 42.5858 212.891 42.7274C212.925 42.6294 212.959 42.5349 212.995 42.4438C213.034 42.3516 213.068 42.2742 213.097 42.2117C213.165 42.0798 213.237 41.9772 213.313 41.9038C213.391 41.8293 213.469 41.78 213.545 41.7558C213.634 41.7273 213.713 41.7306 213.781 41.7659C213.852 41.7966 213.901 41.855 213.928 41.9412C213.948 42.0033 213.954 42.0755 213.946 42.1578C213.939 42.2058 213.922 42.2719 213.895 42.3563C213.869 42.4406 213.84 42.5295 213.809 42.623C213.778 42.7164 213.754 42.8002 213.736 42.8744C213.717 42.9485 213.713 42.9994 213.722 43.027C213.733 43.0615 213.757 43.0727 213.795 43.0606C213.854 43.0419 213.913 42.9946 213.972 42.9187C214.042 42.8281 214.115 42.7232 214.191 42.604C214.235 42.5348 214.274 42.4728 214.309 42.4181C214.334 42.3787 214.357 42.3431 214.377 42.3112C214.386 42.293 214.396 42.2823 214.406 42.279C214.42 42.2746 214.43 42.281 214.435 42.2983C214.442 42.319 214.439 42.3407 214.428 42.3634C214.391 42.4282 214.343 42.5099 214.283 42.6087C214.227 42.7064 214.164 42.8063 214.094 42.9084C214.024 43.0104 213.952 43.1016 213.879 43.1819C213.805 43.2587 213.733 43.3081 213.664 43.3301C213.575 43.3587 213.494 43.3616 213.422 43.3389C213.354 43.3151 213.305 43.2583 213.277 43.1687C213.258 43.11 213.249 43.0407 213.25 42.9606C213.251 42.8805 213.273 42.7806 213.314 42.661C213.355 42.5379 213.402 42.4166 213.455 42.2971C213.507 42.1742 213.551 42.0729 213.586 41.9933C213.612 41.9318 213.621 41.889 213.614 41.8649C213.604 41.8339 213.578 41.8249 213.537 41.8381C213.488 41.8535 213.424 41.9024 213.344 41.9849C213.267 42.0663 213.194 42.1809 213.123 42.3288C213.077 42.4231 213.036 42.537 212.998 42.6705C212.965 42.8028 212.938 42.9346 212.919 43.066C212.899 43.1939 212.887 43.3059 212.884 43.402C212.879 43.4718 212.845 43.5171 212.779 43.538C212.745 43.549 212.708 43.5491 212.671 43.5382C212.637 43.5263 212.623 43.5061 212.629 43.4776C212.667 43.2984 212.703 43.1215 212.739 42.9468C212.778 42.7711 212.806 42.5912 212.823 42.4071C212.838 42.2849 212.836 42.1961 212.818 42.141C212.803 42.0927 212.775 42.0751 212.733 42.0883C212.692 42.1015 212.643 42.1455 212.587 42.2203C212.534 42.2905 212.491 42.3649 212.459 42.4435C212.407 42.5664 212.362 42.7003 212.325 42.8451C212.286 42.9865 212.255 43.1143 212.23 43.2284C212.222 43.2634 212.212 43.2982 212.203 43.3328C212.189 43.384 212.174 43.4347 212.158 43.485C212.132 43.5694 212.099 43.6519 212.06 43.7327C212.012 43.843 211.952 43.9097 211.879 43.9328ZM205.48 26.86L204.527 27.1635L204.692 27.6809L205.644 27.3774L205.48 26.86ZM206.597 27.0739L207.55 26.7704L207.386 26.2531L206.433 26.5566L206.597 27.0739ZM203.574 27.467L202.621 27.7705L202.786 28.2878L203.739 27.9843L203.574 27.467ZM201.668 28.0739L200.716 28.3774L200.88 28.8947L201.833 28.5913L201.668 28.0739ZM208.338 25.9496L209.291 25.6462L209.456 26.1635L208.503 26.467L208.338 25.9496ZM210.722 25.7601L210.409 25.86L210.244 25.3427L210.558 25.2428L211.075 25.0781L211.24 25.5954L211.286 25.7425L210.769 25.907L210.722 25.7601ZM212.286 30.6712L212.804 30.5067L213.107 31.4595L212.59 31.6241L212.286 30.6712ZM212.893 32.5769L213.411 32.4123L213.714 33.3652L213.197 33.5297L212.893 32.5769ZM213.5 34.4826L214.018 34.318L214.321 35.2709L213.804 35.4354L213.5 34.4826ZM214.107 36.3883L214.411 37.3411L214.928 37.1765L214.625 36.2237L214.107 36.3883ZM214.714 38.2939L215.018 39.2468L215.535 39.0822L215.232 38.1294L214.714 38.2939ZM215.321 40.1996L215.625 41.1525L216.142 40.9879L215.839 40.0351L215.321 40.1996ZM215.928 42.1053L216.232 43.0581L216.749 42.8936L216.445 41.9408L215.928 42.1053ZM216.535 44.011L216.567 44.1123L216.247 44.2144L216.411 44.7317L216.732 44.6295L217.249 44.4648L217.085 43.9475L217.052 43.8464L216.535 44.011ZM215.294 44.5179L215.458 45.0352L214.506 45.3387L214.341 44.8213L215.294 44.5179ZM213.388 45.1248L213.553 45.6422L212.6 45.9456L212.435 45.4283L213.388 45.1248ZM211.482 45.7318L211.647 46.2491L210.694 46.5526L210.53 46.0352L211.482 45.7318ZM209.577 46.3387L209.741 46.856L208.788 47.1595L208.624 46.6422L209.577 46.3387ZM207.671 46.9456L207.836 47.463L206.883 47.7664L206.718 47.2491L207.671 46.9456ZM205.765 47.5526L205.93 48.0699L204.977 48.3734L204.813 47.8561L205.765 47.5526ZM203.86 48.1595L203.062 48.4136L203.028 48.3072L202.511 48.4718L202.545 48.5784L202.709 49.0956L203.227 48.9309L204.024 48.6769L203.86 48.1595ZM202.207 47.5189L202.725 47.3544L202.421 46.4015L201.904 46.5661L202.207 47.5189ZM199.779 39.8962L199.476 38.9434L199.993 38.7788L200.297 39.7317L199.779 39.8962ZM200.083 40.849L200.6 40.6845L200.904 41.6373L200.386 41.8019L200.083 40.849ZM200.69 42.7547L201.207 42.5902L201.511 43.543L200.993 43.7076L200.69 42.7547ZM201.297 44.6604L201.814 44.4959L202.118 45.4487L201.6 45.6133L201.297 44.6604ZM199.172 37.9905L199.69 37.826L199.386 36.8731L198.869 37.0377L199.172 37.9905ZM198.566 36.0848L199.083 35.9203L198.779 34.9675L198.262 35.132L198.566 36.0848ZM197.959 34.1792L198.476 34.0146L198.172 33.0618L197.655 33.2263L197.959 34.1792ZM197.352 32.2735L197.869 32.1089L197.566 31.1561L197.048 31.3206L197.352 32.2735ZM199.763 28.6809L198.81 28.9843L198.975 29.5017L199.927 29.1982L199.763 28.6809Z" fill="#F0E4D1"/>
</svg>
